<?xml version="1.0" encoding="UTF-8"?>
<svg id="Layer_2" data-name="Layer 2" xmlns="http://www.w3.org/2000/svg" viewBox="0 0 169.84 469.82">
  <defs>
    <style>
      .cls-1 {
        fill: #ebd4b9;
      }

      .cls-2, .cls-3, .cls-4, .cls-5, .cls-6, .cls-7 {
        fill: none;
        stroke: #715144;
      }

      .cls-2, .cls-3, .cls-7 {
        stroke-miterlimit: 10;
      }

      .cls-2, .cls-5 {
        stroke-width: .75px;
      }

      .cls-8 {
        fill: #cdbd9d;
      }

      .cls-3 {
        stroke-width: .5px;
      }

      .cls-4 {
        stroke-linecap: round;
        stroke-width: .4px;
      }

      .cls-4, .cls-5, .cls-6 {
        stroke-linejoin: round;
      }
    </style>
  </defs>
  <g id="Outline">
    <g>
      <g>
        <path class="cls-8" d="M111.59,47.22c-4.1-17.28-17.55-31.98-34.33-37.75-.07.09-.13.19-.2.28.24.02.49.05.73.07-.2,5.91-4.6,10.09-9.05,14.37,8.41,4.69,14.35,14.23,15.91,23.71.25,1.51.56,3.29,1.94,3.95,1.69.81,3.6-.74,4.5-2.39,2.23-4.07,1.78-9.02,1.27-13.63,6.49,11.59,5.94,16.96,4.02,19.7-1.95,2.78-5.79,3.52-8.74,8.84-.55,1-2.52,4.54-1.39,5.74,1.39,1.48,6.84-1.22,10.1-3.56,4.08-2.93,6.43-6.53,7.71-8.92,1,2.62.49,5.63-.74,8.15-1.35,2.76-2.68,3.23-4.99,6.74-2.26,3.44-1.18,4.25-3.79,9.08-1.91,3.53-3.31,4.81-4.28,5.54-.72.55-2.43,1.83-4.59,2.18-5.49.87-9.35-5.1-10.69-4.16-1.54,1.08.52,11,7.37,14.18,6.13,2.84,13.09-1.1,14.56-1.93,13.88-7.85,19.11-31.54,14.69-50.18Z"/>
        <path class="cls-8" d="M18.38,149.12c-2.16-.03-4.28-1.94-4.88-4.02-.6-2.08,1.05-4.65,3.21-4.53,1.86.1,3.18,1.95,3.58,3.76.4,1.82.17,3.72.45,5.56.51,3.36,2.64,6.18,5.18,8.5,4.11-2.73,9.45-3.48,14.6-2.16,0-.1,0-.2,0-.31-.95-.99-1.87-1.99-2.81-2.99-1.42.84-3.29,1.02-4.88.47-2.38-.83-4.14-2.9-5.31-5.13-1.17-2.23-1.86-4.68-2.86-7-1-2.32-2.38-4.58-4.52-5.92-3.23-2.03-7.81-1.36-10.52,1.33s-3.47,7.06-2.07,10.61c.88,2.24,2.67,4.23,5.01,4.8,2.34.57,5.13-.68,5.82-2.98Z"/>
        <path class="cls-8" d="M59.97,115.95c-.95-1.6-2.34-2.92-3.18-4.58s-.99-3.92.38-5.18c1.59-1.46,4.5-.52,5.35,1.47s.43,4.8-1.23,6.2c1.99,1.35,4.94.53,6.38-1.39,1.45-1.92,1.56-4.6.82-6.89-1.17-3.63-4.54-6.53-8.33-6.88s-7.76,2.04-8.98,5.65c-.8,2.39-.43,5.02.26,7.44s1.72,4.76,2.23,7.22c.46,2.19.42,4.56-.51,6.57,1.1.89,2.25,1.87,3.46,2.98,1.1,1.01,2.11,2.16,3,3.4.59-1.2,1-2.53,1.28-3.8.91-4.09,1.18-8.62-.96-12.22Z"/>
        <path class="cls-8" d="M68.87,143.29c-.21-.74-.63-1.42-.79-2.18s.02-1.68.7-2.05c.8-.42,1.87.27,2,1.16s-.34,1.98-1.15,2.37c.66.75,1.93.74,2.72.12.79-.62,1.12-1.69,1.06-2.69-.09-1.59-1.14-3.11-2.63-3.65-1.49-.54-3.34,0-4.21,1.33-.58.88-.71,1.98-.68,3.02s.19,2.1.13,3.14-.36,2.14-1.12,2.86c-.12.12-.28.2-.42.29.71.95,1.46,1.97,2.24,3.03.51-.48.92-1.11,1.24-1.73.8-1.55,1.39-3.35.9-5.02Z"/>
        <path class="cls-8" d="M87.33,203.36c-.07-.11-.12-.24-.18-.35-1-1.59-2.06-3.8-.55-6.24-.03-.14-.04-.3-.08-.45-1.94-7.94-5.28-14.75-9.92-19.74-1.44-1.55-3.07-3.79-1.8-6.83.71-1.69,2.05-2.77,3.36-3.18-6.2-9.51-11.77-17.1-15.83-22.42,1.77-5.57-1.39-11.63-5.68-15.6-5.01-4.62-9.06-7.04-12.66-9.2,3.36-7.6,4.09-16.28-.18-23.2-2.05-3.33-5.09-6-6.92-9.45-1.84-3.45-2.04-8.35,1.07-10.72,2.62,1.66,4.82,4,6.31,6.72,2.52-2.95-.05-7.31-1.97-10.68-4.83-8.49-5.05-19.44-.56-28.12.76-1.47,1.7-2.93,3.12-3.75s3.46-.82,4.55.42c.59.67.82,1.57,1.04,2.44,1.11,4.43,2.21,8.87,3.32,13.3,3.2-1.91,4.51-5.88,4.91-9.59.4-3.7.16-7.53,1.34-11.06,3.39-10.13,17.4-15.17,17.77-25.84-.24-.02-.49-.05-.73-.07,1.79-2.38,3.13-4.7,4.12-6.68C51.39-6.96,17.01,13.65,5.67,42.97c-11.34,29.32-2.98,63.54,14.99,89.34,6,8.61,12.96,16.44,20.24,24.03.61.17,1.22.36,1.83.59,10.02,3.78,18.64,13.42,26.45,23.09,3.23,3.99,11.87,16.28,18.17,28.07.02-1.59.03-3.17-.02-4.72Z"/>
        <path class="cls-8" d="M108.86,267.34c-2.73-6.45-5.99-13.07-11.73-17.1-5.74-4.02-14.62-4.38-19.09,1.01,1.39.25,2.75.63,4.08,1.09-.68-.08-1.37-.11-2.05-.09-5.8.18-11.34,3.96-13.63,9.29,3.47,3.28,8.35,5.01,13.11,4.64-1.53,1.29-3.82,1.11-5.74.54s-3.82-1.46-5.82-1.36c-2,.1-4.12,1.73-3.82,3.71.33,2.19,3.04,2.95,5.21,3.37,7,1.35,13.68,4.18,19.59,8.14,6.06,4.06,9.79,11.63,15.42,15.38,17.53,11.66,7.05-22.48,4.46-28.63Z"/>
        <path class="cls-8" d="M74.32,253.66c1.81-.83,3.76-1.34,5.75-1.4.69-.02,1.37.02,2.05.09-1.33-.46-2.69-.84-4.08-1.09,4.47-5.4,13.35-5.03,19.09-1.01,5.74,4.02,9,10.64,11.73,17.1.03.07.06.16.09.23-.13-8.41-9.63-26.43-12.34-30.73-4.19-6.66-8.89-13.37-14.94-16.5-6.06-3.13-13.74-1.29-15.99,5.98,1.26-.07,2.53.02,3.8.21-.6.09-1.2.22-1.78.41-4.9,1.68-8.53,7.38-8.94,14.03,3.91,2.86,8.57,3.59,12.52,1.96-.93,1.86-2.93,2.23-4.74,2.06-1.8-.16-3.68-.7-5.35-.07-1.68.63-3.02,3.02-2.19,5.2.92,2.41,3.44,2.59,5.42,2.51,3.28-.12,6.6.23,9.9,1.02Z"/>
        <path class="cls-8" d="M54.42,207.69c.64-.28,1.31-.48,1.99-.63-1.46-.1-2.92-.08-4.35.11,1.91-8.5,10.5-11.29,17.68-8.27,7.19,3.02,13.16,10.23,18.54,17.44,1.21,1.61,3.5,5.05,6.01,9.23-2.13-13.29-20.13-39.36-25.12-45.54-7.81-9.66-16.43-19.31-26.45-23.09-10.02-3.78-21.6.54-23.68,12.37,1.94-.34,3.93-.44,5.94-.38-.92.25-1.82.56-2.68.98-7.28,3.54-11.81,13.17-11.15,23.68,6.63,3.75,14.02,4.02,19.84.73-1.09,3.09-4.13,4.04-6.96,4.12-2.83.08-5.85-.41-8.33.89-2.48,1.29-4.1,5.3-2.38,8.56,1.9,3.61,5.86,3.42,8.92,2.93,8.56-1.36,17.57-.63,26.49,1.94,1.5-2.28,3.42-4.08,5.7-5.07Z"/>
        <g>
          <path class="cls-8" d="M86.6,196.77s0,0,0-.01c1.37-2.2,3.96-2.75,5.26-1.79,1.31.96,1.77,2.89,2.5,4.5.73,1.61,1.98,3.02,3.94,2.5-3.21-2.15-4.84-6.54-4.38-11.77,5.6-4.29,11.96-5.23,15.65-2.33.44.34.83.75,1.18,1.19-.45-1.19-.99-2.3-1.64-3.3,1.16-.53,2.26-.81,3.31-.91,2.01-8.77,3.47-17.68,1.9-24.76-1.75-7.94-8.59-12.5-15.94-7.44.93.97,1.75,2.09,2.49,3.31-.49-.41-1.01-.78-1.57-1.06-4.76-2.43-11.83,0-17.4,5.98.47,5.92,3.15,10.44,7.21,12.14-2.13,1-3.82-.29-4.95-1.93-1.13-1.63-2.02-3.68-3.69-4.46-1.67-.78-4.51.39-5.66,3.14-1.27,3.04.35,5.28,1.8,6.83,4.64,4.99,7.98,11.8,9.92,19.74.03.14.05.3.08.44Z"/>
          <path class="cls-8" d="M92.39,218.91c-.74-5.9-2.4-11.23-5.07-15.58.05,1.56.06,3.15.03,4.76,2,3.75,3.76,7.45,5.04,10.81Z"/>
        </g>
        <g>
          <path class="cls-8" d="M96.61,236.84c.21.34.48.78.77,1.28-.29-.5-.55-.94-.77-1.28Z"/>
          <path class="cls-8" d="M96.61,236.84c-.67-1.07-1.37-2.14-2.08-3.2.71,1.06,1.4,2.13,2.08,3.2Z"/>
          <path class="cls-8" d="M92.12,230.19c.75,1.01,1.47,2.05,2.18,3.1-.71-1.06-1.43-2.09-2.18-3.1Z"/>
          <path class="cls-8" d="M99.55,242.08c-.34-.64-.66-1.23-.96-1.79.3.56.63,1.16.96,1.79Z"/>
          <path class="cls-8" d="M109.11,185.76c.65,1,1.19,2.11,1.64,3.3-.36-.44-.75-.84-1.18-1.19-3.7-2.9-10.06-1.96-15.65,2.33-.46,5.23,1.18,9.62,4.38,11.77-1.95.52-3.21-.89-3.94-2.5-.73-1.61-1.19-3.54-2.5-4.5-1.31-.96-3.89-.41-5.26,1.79-1.52,2.44-.46,4.66.55,6.25,3.23,5.12,5.09,11.61,5.59,18.85.03.39.02.79.03,1.19,2.18,3.5,4.69,7.81,6.89,12.15-.12-.45-.23-.91-.36-1.36-.63-2.12-1.22-4.92.46-6.66,1.52-1.58,3.83-.87,4.82.75.99,1.62,1.1,3.82,1.49,5.83.14.7.34,1.41.61,2.05.24-.42.48-.84.72-1.26-1.01-3.19-1.16-6.87-.33-10.49,2.02-.6,4.06-.68,5.97-.31,1.04-2.13,1.84-3.88,2.3-4.97,3.41-8.11,6.61-16.69,6.26-23.89-.35-7.21-5.5-12.32-12.48-9.13Z"/>
          <path class="cls-8" d="M98.37,239.88c-.28-.52-.55-.98-.79-1.41.25.43.51.89.79,1.41Z"/>
          <path class="cls-8" d="M100.84,244.58c-.37-.74-.73-1.44-1.08-2.11.35.67.71,1.38,1.08,2.11Z"/>
        </g>
        <g>
          <path class="cls-8" d="M101.31,245.51s0,0,0,0c.86,1.74,1.75,3.62,2.6,5.54-.85-1.92-1.74-3.8-2.6-5.54Z"/>
          <path class="cls-8" d="M120.86,226.99c.42,1.34.71,2.75.92,4.18-.24-.63-.52-1.23-.85-1.8-2.76-4.79-8.4-6.95-13.88-5.32-1.17,5.13-.42,10.42,2.03,14.19-1.77-.43-2.64-2.49-3.03-4.49-.39-2.01-.5-4.21-1.49-5.83-.99-1.62-3.3-2.33-4.82-.75-1.68,1.75-1.09,4.54-.46,6.66.13.44.23.9.35,1.35,3.69,7.28,6.49,14.6,5.25,18.13-.23-.54-.47-1.08-.7-1.61,2.54,5.79,4.69,11.9,4.75,15.87-.03-.07-.07-.16-.09-.23.67,1.58,1.85,5.01,2.95,9.04,4.3-5.02,8.12-10.34,9.5-12.55,4.16-6.62,8.21-13.82,8.98-21.36.78-7.54-2.92-15.3-9.43-15.47Z"/>
        </g>
        <path class="cls-8" d="M67.69,226.95c.58-.2,1.17-.33,1.78-.41-1.27-.19-2.54-.28-3.8-.21,2.25-7.27,9.94-9.11,15.99-5.98,6.05,3.13,10.75,9.84,14.94,16.5,1.55,2.46,5.32,9.41,8.29,16.48,2.63-7.45-12.7-31.75-16.61-36.99-5.38-7.21-11.35-14.43-18.54-17.44-7.19-3.02-15.78-.22-17.68,8.27,1.43-.19,2.88-.21,4.35-.11-.68.15-1.35.36-1.99.63-5.43,2.36-9.05,9.19-8.91,16.81,4.71,2.9,10.1,3.31,14.45,1.09-.89,2.2-3.14,2.81-5.21,2.78-2.07-.02-4.26-.46-6.11.41-1.85.87-3.16,3.71-2.02,6.12,1.27,2.66,4.16,2.64,6.41,2.37,2.11-.25,4.24-.31,6.4-.22,1.31-4.88,4.38-8.77,8.27-10.1Z"/>
      </g>
      <g>
        <g>
          <path class="cls-1" d="M126.11,229.15c-.46-.42-.96-.77-1.49-1.08-1.03-.6-2.18-.97-3.45-1.05,0,.31.11.63.42.85,3.13,2.25,4.07,6.4,4.54,10.01.31,2.34.42,4.78-.13,7.09-.49,2.08-1.51,3.96-2.52,5.82-1.61,2.97-3.24,5.94-4.92,8.87-.81.91-1.65,1.81-2.59,2.58.03-.02-.24.19-.14.12.08-.06-.09.07-.11.08-.13.09-.26.18-.39.26-.12.07-.24.14-.36.21-.04.02-.07.04-.11.05-.28-.2-.54-.42-.84-.69-.84-.75-1.62-1.64-2.2-2.47-.68-.95-1.27-1.96-1.8-3-.54-1.07-.98-2.07-1.39-3.12-.27-.68-.51-1.38-.75-2.06-.16-.6-.3-1.19-.45-1.79-.16-.74-.31-1.48-.48-2.22-.77-3.38-2.11-6.35-3.79-9.36-1.55-2.78-3.2-5.64-3.41-8.89-.05-.73-.71-1.03-1.26-.93-1.37-5.13-2.75-10.27-4.45-15.31-1.63-4.84-4.15-9.65-4.59-14.8,0-.08-.04-.14-.06-.22.06-.36.16-.71.29-1.05.16-.36.35-.7.59-1.01-.05.06-.09.12-.13.17.1-.09.17-.2.2-.32.06-.12.09-.25.09-.39,0-.25-.11-.54-.29-.71-.19-.18-.44-.31-.71-.29-.19,0-.41.08-.57.2.06-.07.12-.14.15-.24.06-.12.09-.25.09-.39-.01-.09-.02-.18-.04-.27,0-.03-.04-.05-.05-.08.87.41,1.81.71,2.82.94.4.09.72-.06.94-.29.04,0,.08.02.12.02.15,0,.31-.05.45-.13.42,1.08,1.15,2.02,1.95,2.85.44.46.91.89,1.34,1.35.22.23.44.48.64.73.02.02.04.05.05.07.08.14.07.1.04.05.03.04.05.07.08.11.1.14.2.29.29.44.09.15.17.3.25.46.01.03.03.06.04.09.01.05.07.17.08.21.06.17.11.35.14.52,0,.03.01.06.02.09,0,.08.02.17.02.25.02.52.45,1.03,1,1,.53-.02,1.03-.44,1-1-.06-1.53-.84-2.82-1.81-3.95-.43-.5-.91-.96-1.38-1.42-.23-.22-.45-.45-.66-.68-.1-.11-.21-.23-.3-.34-.05-.06-.1-.12-.15-.17-.02-.03-.05-.06-.07-.09-.21-.28-.4-.57-.56-.88-.04-.08-.08-.15-.11-.23,0-.01-.01-.03-.02-.04,0,0,0,.01,0-.01-.07-.18-.12-.36-.17-.55-.12-.51-.73-.86-1.23-.7-.04-1.03.08-2.02.86-2.82.94-.96,2.23-1.66,3.47-2.14,1.32-.51,2.72-.81,4.13-.87.71-.03,1.43,0,2.13.1.87.11,1.71.24,2.57.02.23-.06.44-.16.66-.26.01.13.05.28.14.42.75,1.31,1.25,2.74,1.65,4.19.08.02.15.07.19.14.09.16.19.31.28.47.02,0,.03,0,.05,0,.32.2.61.45.79.79.06.11.1.22.15.33.38.41.79.79,1.18,1.18,0-.04,0-.08,0-.12-.3-2.82-1.15-5.54-2.56-8-.03-.06-.08-.08-.11-.13.8-.27,1.61-.4,2.45-.39.4,0,.66-.19.81-.46-.08,0-.15-.01-.23,0,.08-.35.15-.71.23-1.06.5-2.25.96-4.5,1.33-6.73,1.03-6.1,1.44-11.99.34-16.97-.73-3.32-2.37-6.04-4.55-7.72-.91-.7-1.91-1.21-2.98-1.51-.11.28-.12.6.06.83,6.96,9.04,5.72,21.03,4.46,31.65-.71.03-1.43.12-2.11.31-.81.23-1.53.64-2.31.95-.84.33-1.64.17-2.5.06-.76-.09-1.53-.13-2.29-.09-3.11.15-6.56,1.29-8.81,3.53-.67.67-1.18,1.5-1.38,2.43-.14.69-.14,1.38-.1,2.07-.82-.19-1.64-.39-2.37-.8-.9-.5-1.44-1.29-1.89-2.2-.93-1.88-1.57-3.92-2.14-5.93-1.18-4.13-2-8.38-3.64-12.37-.47-1.13-.97-2.28-1.61-3.33-.41-.67-1-1.23-1.7-1.45-.1.02-.2.01-.3.05-.03-.05-.06-.09-.09-.13-1.31-2-2.57-3.88-3.81-5.71-2.45-3.6-4.75-6.86-6.85-9.75-.23-.31-.47-.65-.69-.96.51-.48.92-1.11,1.24-1.73.8-1.55,1.39-3.35.9-5.02-.21-.74-.63-1.42-.79-2.18s.02-1.68.7-2.05c.8-.42,1.87.27,2,1.16s-.34,1.98-1.15,2.37c.33.37.8.55,1.29.57.51.02,1.03-.14,1.43-.45.79-.62,1.12-1.69,1.06-2.69-.09-1.59-1.14-3.11-2.63-3.65-1.49-.54-3.34,0-4.21,1.33-.58.88-.71,1.98-.68,3.02s.19,2.1.13,3.14c-.05,1-.34,2.03-1.03,2.76-.03.03-.05.08-.09.11-.12.12-.28.2-.42.29-.76-1.01-1.48-1.96-2.15-2.85.33-1.04.49-2.09.5-3.14.03-2.75-.94-5.49-2.46-7.95-.23-.37-.47-.75-.72-1.11.06-.12.1-.26.16-.39.4-.88.7-1.81.94-2.74.06-.22.14-.45.18-.67.21-.94.38-1.9.5-2.87.4-3.25.19-6.58-1.46-9.36-.05-.08-.1-.15-.15-.22-.95-1.5-2.23-2.78-3.03-4.36-.84-1.66-.99-3.92.38-5.18,1.59-1.46,4.5-.52,5.35,1.47.75,1.75.45,4.09-.74,5.59.96.82,2.82.75,3.4-.84,1.02-2.79-.62-7.67-3.27-9.14-3.61-2.01-7.3,1.2-7.71,4.82-.45,3.9,1.63,7.85,2.59,11.54.62,2.36.93,4.86.36,7.17-1-1.35-2.11-2.46-3.34-3.43-.12.77-.3,1.52-.63,2.23-2.66-2.13-5.04-3.68-7.23-5.03-.67-.41-1.33-.81-1.97-1.19.27-.62.5-1.25.73-1.87,2.68-7.13,3.01-14.96-.91-21.32-1.16-1.88-2.62-3.56-4.02-5.28-1.07-1.32-2.11-2.67-2.91-4.17-1.4-2.64-1.84-6.1-.59-8.66.39-.79.92-1.5,1.66-2.07,2.22,1.41,4.11,3.32,5.55,5.52.26.4.53.78.76,1.2.31-.36.54-.75.71-1.15,1.19-2.86-.99-6.57-2.68-9.53-4.11-7.22-4.85-16.21-2.23-24.08.46-1.38.99-2.75,1.66-4.04.2-.39.42-.79.66-1.17.64-1.04,1.42-1.98,2.46-2.58,1.04-.6,2.4-.75,3.49-.3.14.06.26.16.39.24.24.14.48.27.67.49.17.2.27.44.39.67.29.55.5,1.15.65,1.76.66,2.63,1.31,5.25,1.97,7.88.45,1.81.9,3.61,1.35,5.42,3.2-1.91,4.51-5.88,4.91-9.59.38-3.52.22-7.14,1.21-10.53.05-.18.07-.36.13-.53,1.4-4.18,4.61-7.5,7.93-10.7.26-.26.53-.51.79-.77,7.46,4.16,12.96,12.14,15.2,20.51.29,1.07.54,2.14.71,3.21.25,1.51.56,3.29,1.94,3.95,1.69.81,3.6-.74,4.5-2.39.02-.04.04-.09.06-.13,2.16-4.04,1.72-8.94,1.21-13.5,6.49,11.59,5.94,16.96,4.02,19.7-1.49,2.11-4.06,3.06-6.5,5.72-.77.84-1.53,1.84-2.24,3.11-.55,1-2.52,4.54-1.39,5.74,1.15,1.23,5.06-.41,8.22-2.34.67-.4,1.31-.82,1.87-1.22,4.08-2.93,6.43-6.53,7.71-8.92,1,2.62.49,5.63-.74,8.15-1.35,2.76-2.68,3.23-4.99,6.74-2.26,3.44-1.18,4.25-3.79,9.08-1.91,3.53-3.31,4.81-4.28,5.54-.72.55-2.43,1.83-4.59,2.18-5.49.87-9.35-5.1-10.69-4.16-.69.48-.65,2.73.2,5.34.17.13.33.27.53.39,5.53,3.28,13.15,6.31,18.79,1.57,2.77-2.32,4.32-5.97,5.89-9.15,1.83-3.7,3.48-7.51,4.95-11.37,1.86-4.91,5.76-13.66-.34-17.34-.75-.45-1.52-.7-2.28-.82.18-1.24.28-2.49.18-3.77-.33-4.13-1.79-8.02-3.48-11.77-1.5-3.34-3.56-6.56-7.38-7.38-2.63-.57-4.94,1.17-5.08,3.87-.04.71-.07,1.43-.11,2.14-.04-.1-.08-.2-.12-.3-1.02-2.61-1.92-5.29-3.25-7.77-2.3-4.31-5.91-7.85-10.18-10.17,1.85-2.82,3.48-5.78,5.04-8.77-.35-.13-.7-.28-1.06-.4.94-1.28,1.74-2.52,2.44-3.72.55-.94,1.06-1.85,1.48-2.68-1.35-.46-2.72-.83-4.09-1.16-2.55-.62-5.13-1.03-7.71-1.24-.14.4-.27.81-.31,1.27-.04.52-.15,1.11-.23,1.68-.65.33-1.21.82-1.54,1.5-2.97,6.05-6.67,11.71-11.16,16.74-1.98,2.22-4.25,4.98-6.71,6.56-1.15.74-2.18,1.5-3.18,2.35-5.5,1.26-9.02,6-11.66,10.68-2.95,5.23-5.07,10.99-6.19,16.89-1.09,5.76-1.36,11.65-.64,17.47.8,6.44,3.12,12.31,4.78,18.53,1.72,6.45,1.26,13.17,2.54,19.7,1.18,5.98,3.92,11.62,6.97,16.84,6.68,11.4,14.29,21.81,23.16,31.58,4.76,5.24,8.09,10.66,10.08,17.48,1.19,4.06,2.1,8.19,3.19,12.27-7.37-10.89-15.44-21.26-25.38-29.86-.4-.43-.84-.81-1.31-1.15-.37-.3-.7-.64-1.07-.94-.51-.41-1.06-.62-1.6-.68-.23-.13-.45-.27-.69-.4-2.22-1.94-4.86-3.41-7.7-4.2-.24-.07-.49-.04-.74-.05-.09-.04-.18-.09-.27-.13-.92-.41-1.99-.43-2.88-.02-.36-.08-.71-.19-1.07-.25.32-.28.55-.64.67-1.05-1.17.35-2.47.34-3.63-.06-2.38-.83-4.14-2.9-5.31-5.13-1.17-2.23-1.86-4.68-2.86-7-1-2.32-2.38-4.58-4.52-5.92-1.14-.72-2.46-1.08-3.8-1.15.93.94,1.67,2.19,2.24,3.05,1.57,2.41,2.9,4.93,4.23,7.49,2.08,4.01,4.78,7.82,8.91,9.46-2.19.12-2.56,3.27-.43,3.92,15.76,4.8,26.89,17.41,36.92,29.89,5.74,7.82,10.94,16.09,16.15,24.24-.48-.56-.94-1.14-1.43-1.69-.57-.65-1.18-1.26-1.77-1.89-1.38-1.75-2.83-3.46-4.44-5.04-2.32-2.28-4.9-4.3-7.71-5.92-.69-.4-1.34.11-1.47.72-1.15-.54-2.33-1.01-3.55-1.36-1.24-.35-1.77,1.58-.53,1.93,4.68,1.33,8.58,4.33,11.89,7.81,3.66,3.85,6.75,8.23,9.81,12.56,1.97,2.79,3.9,5.61,5.78,8.47.14.21.32.32.52.39,1.47,2.39,2.99,4.76,4.64,7.04.29.4.73.49,1.11.4,1.47,3.06,2.79,6.18,3.95,9.37.44,1.2,2.37.68,1.93-.53-3.74-10.33-9.11-20.02-15.83-28.69,2.36.98,5.56-1.52,3.83-4.21-1.85-2.88-3.7-5.79-5.56-8.69.95-.09,1.85-.46,2.51-1.05.93,3.95,2.67,7.7,3.98,11.53,1.77,5.2,3.19,10.52,4.61,15.82.17.62.73.8,1.21.67.32,3.07,1.63,5.84,3.12,8.53,1.53,2.76,2.87,5.43,3.72,8.44,0,.07-.01.13,0,.21.22.94.47,1.87.71,2.8-.08.2-.12.41-.05.61.16.47.33.94.5,1.42,1.11,5,2.15,10.02,3.18,15.04-.23-.29-.58-.47-.95-.6-.32-.72-.67-1.43-1.02-2.14-.18-.89-.32-1.79-.52-2.68-.1-.45-.6-.76-1.05-.71-.42-1.23-.8-2.47-1.28-3.68-.19-.49-.68-.88-1.23-.7-.19.06-.36.2-.5.36-.79-1.04-1.62-2.06-2.52-3.02-2.89-3.09-6.3-5.68-10.14-7.49-1.16-.55-2.18,1.18-1.01,1.73,6.84,3.22,11.75,8.6,15.3,14.93.07.22.16.43.23.66,1,4.23.75,8.65.44,12.95-.13,1.79-.31,3.69-1.1,5.32-.38.78-.89,1.55-1.59,2.08-.8.59-1.66.62-2.59.34-.64-.2-1.26-.48-1.87-.77-.05-.08-.12-.16-.17-.25-.23-.41-.6-.53-.95-.47-.28-.24-.57-.46-.85-.7-.2-.17-.43-.31-.67-.41-.09-.06-.17-.14-.25-.2-.98-.72-2.03-1.32-3.11-1.85-2.68-2.03-5.58-3.76-8.66-5.15-3.2-1.44-6.53-2.57-9.93-3.44-1.25-.32-1.78,1.61-.53,1.93,5.81,1.49,11.43,3.76,16.4,7.14.08.35.34.64.71.77.34.12.64.31.96.46.16.12.3.25.46.37-.03.16-.02.32.03.48.27.23.52.48.78.73.15.14.29.28.44.42,1.4,1.36,2.72,2.84,3.99,4.36,2.6,3.11,5.1,6.25,8.15,8.28,12.93,8.6,10.62-7.71,7.48-19.33.04-.16.09-.33.13-.49,4.22-4.95,7.94-10.15,9.31-12.33,4.16-6.62,8.21-13.82,8.98-21.36.53-5.18-1.04-10.46-4.19-13.31Z"/>
          <path class="cls-1" d="M41.69,174.54c-5.44-3.31-11.77-6.47-18.28-4.56-.17.05-.27.17-.38.28-.22-.13-.44-.25-.65-.39-.02.01-.05.02-.07.03-.62.3-1.19.7-1.76,1.09,3.69,2.68,8.22,3.66,12.43,5.31,2.56,1,4.82,2.45,6.93,4.21,2.11,1.75,4.11,3.65,6.39,5.18,2.21,1.49,4.7,2.62,7.39,2.85,1.09.09,2.53.12,2.98-1.12.44-1.21-.57-2.29-1.35-3.07-3.97-3.98-8.86-6.9-13.63-9.8Z"/>
          <path class="cls-1" d="M68.17,211.08c-2.44-1.62-5.3-3.65-8.39-3.3-.57.06-.89.47-.94.91-.06-.03-.12-.07-.18-.1-1.74-.81-3.56-1.35-5.48-1.49-.54-.04-1,.49-1,1,0,.58.46.96,1,1,3.49.26,6.6,2.17,9.3,4.26,1.45,1.12,2.83,2.33,4.27,3.47,1.35,1.08,2.76,2.29,4.46,2.77,1.74.48,3.64.01,4.7-1.49.24-.34.15-.94-.16-1.21-2.39-2.11-4.92-4.05-7.58-5.82Z"/>
          <path class="cls-1" d="M50.43,207.51c-6.04-.37-12.11-.92-18.16-.89-5.72.03-11.43.74-16.69,3.09-.17.08-.28.18-.37.3.79.52,1.67.81,2.59.95.96.15,1.96.14,2.92.05,6.56-1.78,11.3-1.34,14.52-.52,0,0,3.88.99,12.91.72.13,0,.51-.01.83-.27.16-.12.25-.26.3-.34.36-.37.47-.82.52-1.13.21.01.42.03.63.04,1.29.08,1.28-1.93,0-2ZM40.98,208.9c-1.91-.09-3.67-.17-5.26-.22,1.75.05,3.51.12,5.26.22Z"/>
          <path class="cls-1" d="M104.1,256.53c.58,1.15,2.31.14,1.73-1.01-5.19-10.34-10.52-20.83-18.3-29.51-2.19-2.45-4.58-4.71-7.16-6.74-1-.79-2.43.62-1.42,1.42,9.07,7.15,15.31,17.02,20.66,27.1,1.54,2.89,3.01,5.82,4.48,8.75Z"/>
          <path class="cls-1" d="M71.1,227.06c-1.53-.43-3.11-.66-4.7-.7-1.29-.04-1.29,1.97,0,2,2.72.07,5.4.8,7.78,2.11,1.19.66,2.29,1.45,3.3,2.36,1.05.94,2.05,1.93,3.18,2.78,1.36,1.02,2.94,1.83,4.68,1.54.54-.09.83-.75.7-1.23-.16-.57-.7-.79-1.23-.7-1.15.19-2.46-.8-3.29-1.47-1.05-.85-2-1.82-3.02-2.7-2.14-1.85-4.67-3.22-7.39-3.99Z"/>
          <path class="cls-1" d="M61.3,224.44c-.56-.13-1.05.17-1.23.7-.03.09-.06.17-.09.26,0,0,0,0,0,0,0,.01,0,.01-.02.04-.03.07-.07.13-.1.19.04-.02.08-.03.11-.05-.48,1.19-1.36,1.88-2.39,2.29-.6.24-1.24.36-1.9.42-.31.03-.62.07-.92.07-1.32-.01-2.69-.17-3.99-.07.04.06.06.12.11.16,1.33,1.25,3.16,1.95,4.99,1.86,1.74-.08,3.4-.85,4.6-2.11.69-.73,1.21-1.59,1.53-2.55.17-.5-.2-1.12-.7-1.23Z"/>
          <path class="cls-1" d="M77.94,269.4c.89-.18,1.76-.55,2.52-1.04.92-.6,1.69-1.37,2.29-2.3.28-.44.11-1.13-.36-1.37-.5-.26-1.07-.11-1.37.36-.05.08-.1.15-.15.23-.03.05-.16.22-.06.09-.13.17-.27.32-.42.48-.13.13-.26.25-.39.37-.03.03-.07.06-.1.09,0,0-.05.04-.08.06-.02.01-.04.03-.04.03-.05.04-.1.07-.15.11-.32.22-.66.42-1.02.59-.05.03-.25.1-.09.04-.08.03-.17.07-.25.1-.2.07-.4.13-.6.18-.17.04-.35.08-.53.11-.03,0-.03,0-.04,0,0,0-.01,0-.05,0-.1,0-.21.02-.31.02-.21.01-.42.01-.63,0-.11,0-.22-.01-.33-.02-.06,0-.11-.01-.17-.02-.02,0-.02,0-.03,0,0,0,0,0-.03,0-.89-.13-1.77-.37-2.61-.69-.04-.02-.31-.12-.18-.07-.12-.05-.24-.11-.36-.17-.21-.1-.42-.21-.62-.33-.2-.12-.4-.24-.59-.38,0,0,0,0,0,0-.62-.19-1.24-.34-1.86-.43-.01.01-.03.02-.04.03-.35.38-.42,1.04,0,1.42,1.51,1.37,3.47,2.14,5.46,2.5,1.08.19,2.13.23,3.21,0Z"/>
          <path class="cls-1" d="M74.03,241.89c.19-.49-.21-1.12-.7-1.23-.57-.13-1.03.17-1.23.7-.02.05-.12.28-.06.16.06-.12-.06.12-.08.16-.09.18-.19.36-.29.54-.09.15-.19.3-.29.45-.02.02-.04.05-.05.07-.07.08-.13.15-.19.23-.01.01-.02.02-.03.03.06-.02.13-.04.19-.06-.93,1.86-2.93,2.23-4.74,2.06-1.61-.14-3.26-.54-4.79-.19.07.23.23.44.45.61,1.48,1.14,3.48,1.7,5.34,1.51,1.85-.19,3.58-1.02,4.85-2.38.73-.78,1.27-1.67,1.64-2.66Z"/>
          <path class="cls-1" d="M86.93,255.87c-1.08-1.04-2.15-2.04-3.53-2.67-1.53-.7-3.15-1.07-4.79-1.41-.49-.1-.96.14-1.16.61-.64-.11-1.28-.23-1.94-.26-1.29-.06-1.29,1.94,0,2,6.49.33,11.55,5.15,16.49,8.81,1.5,1.11,3.04,2.16,4.68,3.05.1.06.2.07.3.09.17.18.39.29.67.28.48-.02,1.08-.45,1-1-.61-4.57-3.49-8.68-7.57-10.84-1.13-.6-2.35-1.05-3.61-1.31-.51-.1-1.11.15-1.23.7-.11.5.15,1.12.7,1.23.52.11,1.04.24,1.54.42.23.08.45.16.67.25.01,0,0,0,0,0,.05.02.1.04.15.07.13.06.27.12.4.19.45.22.89.47,1.32.74.22.14.44.29.66.45.07.05.14.1.21.15.02.02.05.04.07.05.07.06.14.12.22.18.39.32.76.67,1.11,1.03.17.17.33.35.49.53.09.1.17.2.26.31.03.04.07.08.1.12.02.03.05.06.07.09.46.62.86,1.28,1.22,1.96-1.69-1.18-3.5-2.18-5.24-3.29-1.17-.75-2.26-1.56-3.26-2.53Z"/>
          <path class="cls-1" d="M121.2,245.27c-.04-3.57.74-7.09.4-10.67-.21-2.17-.72-4.28-1.46-6.31-.92-1.23-2.02-2.24-3.29-3.01-.04.2-.03.43.09.66,1.49,2.78,2.43,5.87,2.68,9.02.28,3.46-.47,6.87-.43,10.32.01,1.29,2.02,1.29,2,0Z"/>
          <path class="cls-1" d="M109.48,239.53c.47.11,1.15-.15,1.23-.7.17-1.16-.01-2.27-.4-3.37-.36-1.02-.79-2.01-1.14-3.03-.69-2.03-1.19-4.13-1.49-6.26-.07-.52-.76-.85-1.23-.7-.57.18-.78.67-.7,1.23.29,2.05.77,4.07,1.42,6.04.32.97.72,1.92,1.08,2.87.18.47.34.96.45,1.45.07.31.07.3.09.61,0,.11,0,.22,0,.33,0,.04-.03.4-.01.29-.07.52.13,1.1.7,1.23Z"/>
          <path class="cls-1" d="M113.02,184.97c5.62,3.07,6.52,10.21,5.39,15.91-.71,3.58-2,7.01-3.2,10.45-1.25,3.57-2.49,7.13-3.74,10.7-.43,1.22,1.51,1.75,1.93.53,2.06-5.91,4.37-11.79,6.11-17.81,1.51-5.19,2.11-10.76-.24-15.79-.46-.99-1.07-1.91-1.76-2.76-1.3-.94-2.87-1.4-4.62-1.34.05.03.07.08.13.11Z"/>
          <path class="cls-1" d="M105.28,169.25c-.05.14-.09.22-.12.31-.45.07-.82.54-.82.97,0,.59.46.94,1,1,1.7.2,2.12-2.41,2.34-3.59.29-1.61.32-3.23.09-4.85-.41-2.88-1.73-5.58-3.69-7.72-1.06-1.16-2.32-2.14-3.69-2.9-.72-.4-1.39.16-1.49.78.36.42.72.85,1.05,1.32,3.92,2.46,6.24,6.86,5.96,11.52-.04.7-.15,1.38-.31,2.06-.09.37-.19.74-.31,1.1Z"/>
          <path class="cls-1" d="M85.51,166.47c-.15-.16-.29-.34-.43-.51-.03-.04-.06-.08-.09-.12-.09-.12-.17-.24-.25-.36-.27-.4-.51-.82-.72-1.26-.12-.24-.23-.48-.33-.72-.02-.04-.08-.2-.09-.24-.05-.14-.1-.27-.15-.41-.19-.53-.36-1.07-.52-1.62-.1-.33-.38-.58-.7-.68-.11.11-.22.2-.32.31.17,2.22.66,4.24,1.42,6,.14.19.25.39.4.57,1.16,1.44,2.66,2.54,4.08,3.7.82.67,1.62,1.36,2.33,2.14.35.39,1.06.38,1.42,0,.38-.42.38-1,0-1.42-1.22-1.35-2.71-2.42-4.1-3.58-.68-.57-1.35-1.16-1.94-1.82Z"/>
          <path class="cls-1" d="M18.38,149.12c-1.97-.03-3.89-1.61-4.67-3.46-.08-.18-.16-.36-.21-.55-.31-1.07-.02-2.26.62-3.15.61-.85,1.53-1.43,2.59-1.38,1.86.1,3.18,1.95,3.58,3.76.17.79.22,1.59.25,2.4.03.92.06,1.84.16,2.76,0,.03,0,.07,0,.1.01.1.01.2.03.3.3,1.96,1.16,3.73,2.32,5.33.08-.1.14-.22.17-.34.06-.25.05-.55-.1-.77-.02-.03-.03-.06-.05-.08-.01-.04-.02-.09-.04-.13-.02-.29,0-.58.02-.86.03-.34.05-.69.03-1.03-.03-.43-.09-.86-.19-1.28-.04-.17-.12-.32-.17-.49.03-2.2-.21-4.41-.8-6.53-.49-1.76-1.4-3.78-3.18-4.56-1.13-.49-2.35-.46-3.5-.02-1.08.41-2.18,1-3.05,1.76-1.85,1.63-1.25,4.37,0,6.17,1.29,1.85,3.26,3.04,5.49,3.32.29-.37.54-.78.67-1.25Z"/>
        </g>
        <path class="cls-1" d="M22.64,144.81c2.81,1.79,3.16,5.91,5.65,8.11.86.77,1.94,1.25,2.99,1.72.25.11.7.03.58-.21"/>
        <path class="cls-1" d="M21.36,142.62c.11-1.6-.57-3.14-1.24-4.6-.31-.68-.64-1.39-1.19-1.9-.45-.42-1.03-.67-1.6-.87-1.05-.37-2.16-.59-3.27-.64"/>
        <path class="cls-1" d="M25.64,169.43c4.15-.64,8.46-.21,12.4,1.24,2.85,1.05,5.48,2.61,7.97,4.34,2.86,1.98,5.58,4.22,7.74,6.95,1.16,1.46,2.18,3.17,2.14,5.03"/>
        <path class="cls-1" d="M32.41,170.61c3.89,1.13,7.57,2.97,10.81,5.4,1.96,1.47,3.78,3.16,5.97,4.23.38.19.8.36,1.21.25-3.08-3.35-7.14-5.61-11.21-7.66-.24-.12-.64-.18-.7.09"/>
        <path class="cls-1" d="M53.07,183.14c-.22-1.01-.71-1.97-1.4-2.74"/>
        <path class="cls-1" d="M30.05,169.42c1.13-.28,2.31-.32,3.47-.27,2.32.1,4.7.55,6.64,1.82.85.56,1.6,1.26,2.35,1.96.91.86,1.83,1.72,2.74,2.58"/>
        <path class="cls-1" d="M29.58,169.72c1.86-.67,3.89-1.03,5.84-.67s3.81,1.53,4.69,3.3"/>
        <path class="cls-1" d="M38.11,170.46c.7.42,1.53.57,2.29.89,1.65.71,2.82,2.2,3.91,3.63"/>
        <path class="cls-1" d="M101.64,152.21c4.93,4.09,7.32,11.02,5.95,17.28-.05.23-.11.47-.26.66-.5.64-1.65.15-1.9-.63s.06-1.61.3-2.39c1.03-3.35.78-7.07-.7-10.25"/>
        <path class="cls-1" d="M102.21,156.23c2.92,3.27,4.16,7.96,3.25,12.24-.09.44-.21.9-.07,1.33s.65.77,1.04.54"/>
        <path class="cls-1" d="M102.02,153.39c2.21-1.37,5.27-.31,6.96,1.66,1.7,1.97,2.36,4.6,2.94,7.13.82,3.55,1.6,7.17,1.45,10.81"/>
        <path class="cls-1" d="M83.36,161.91c.58,4.48,3.32,8.64,7.22,10.93"/>
        <path class="cls-1" d="M113.17,186.09c2.02.29,3.65,1.89,4.55,3.72s1.17,3.89,1.44,5.91c.16,1.19.31,2.44-.1,3.57"/>
        <path class="cls-1" d="M110.6,186.86c2.4,2.45,3.7,5.8,4.54,9.11"/>
        <path class="cls-1" d="M111.77,189.03c-.22-.73-.1-1.56.32-2.2.14-.21.32-.42.55-.51.8-.33,1.74.71,2.51.29"/>
        <path class="cls-1" d="M108.71,188.1c1.97,2.27,3.72,4.73,5.2,7.35.07.12.14.25.26.32.26.14.59-.08.68-.36s0-.58-.07-.87c-.55-1.92-1.1-3.84-1.65-5.76-.13-.46-.24-1.01.1-1.35.22-.22.56-.25.87-.27.43-.03.87-.06,1.3-.09"/>
        <path class="cls-1" d="M113.29,186.83c4.44,7.08,5.6,16.13,3.09,24.1"/>
        <path class="cls-1" d="M104.9,186.51c1.77.27,3.42,1.23,4.54,2.63.87,1.09,1.4,2.4,2.16,3.57.79,1.22,1.82,2.27,2.86,3.29.19.19.4.38.67.41.35.04.67-.25.79-.58s.09-.7.06-1.05"/>
        <path class="cls-1" d="M89.84,202.93c2.76,3.25,4.04,7.48,4.96,11.64.92,4.16,1.56,8.43,3.31,12.32"/>
        <path class="cls-1" d="M98.63,200.55c-1.45-1.5-2.06-3.6-2.62-5.61-.19-.69-.38-1.39-.33-2.1s.4-1.44,1.03-1.77"/>
        <path class="cls-1" d="M96.47,189.47c-.91.71-1.52,1.78-1.68,2.93"/>
        <path class="cls-1" d="M96.16,192.24c-.11,1.85.47,3.72,1.59,5.19"/>
        <path class="cls-1" d="M103.76,158.46c1.7,1.68,2.44,4.28,1.88,6.61-.12.51-.3,1.01-.4,1.52-.15.86-.05,1.75.12,2.61.11.54.25,1.09.59,1.52s.91.72,1.44.57c.82-.23,1.05-1.27,1.06-2.12.01-1.39-.19-2.79-.6-4.12"/>
        <path class="cls-1" d="M105.43,166.55c.07-3.05-.55-6.11-1.79-8.89"/>
        <path class="cls-1" d="M105.79,163.14c-.05,1.55-.23,3.1-.53,4.61-.22,1.09-.48,2.33.18,3.23.5.68,1.48.94,2.25.61s1.25-1.23,1.09-2.06"/>
        <path class="cls-1" d="M69.65,226.48c3.27-.11,6.73-.17,9.55,1.49,3,1.76,4.64,5.1,7.02,7.64"/>
        <path class="cls-1" d="M69.89,227.18c1.32-.11,2.66.08,3.89.54,1.07.4,2.05,1.01,3,1.64,3.14,2.09,6.05,4.5,8.96,6.91"/>
        <path class="cls-1" d="M74.17,227.56c1.68.17,3.27.87,4.7,1.78s2.69,2.04,3.96,3.16"/>
        <path class="cls-1" d="M120.98,233.66c.32.21.5.56.66.9,1.37,2.77,2.77,5.74,2.47,8.81-.11,1.13-.45,2.22-.79,3.31-.03.09-.06.18-.14.23s-.21-.01-.2-.1"/>
        <path class="cls-1" d="M120.87,237.2c-.07-.09.13-.14.23-.07.55.37.77,1.05.95,1.69.43,1.48.87,2.97.94,4.51s-.23,3.14-1.16,4.37c-.05.06-.1.12-.17.15-.25.09-.38-.3-.35-.57.24-2.51.71-5.09-.04-7.49-.02-.05-.04-.11-.09-.11s-.05.1,0,.08"/>
        <path class="cls-1" d="M120.17,245.65c-.19.43.05.93.28,1.34.14.24.28.48.48.65s.5.28.76.19c.32-.11.48-.46.59-.78.66-1.8,1.02-3.7,1.08-5.62"/>
        <path class="cls-1" d="M121.96,246.97c-.14.11-.09.35.06.44s.35.04.48-.08.2-.28.26-.44c.17-.49.23-1.01.28-1.53"/>
        <path class="cls-1" d="M85.08,253.36c3.67,2.6,7.22,5.38,10.63,8.32-3.76-2.17-7.27-4.78-10.43-7.76,1.54,1.77,3.45,3.18,5.45,4.41-1.57-1.22-3.14-2.45-4.72-3.67,1.97,1.84,4.19,3.41,6.57,4.67-.37-.49-.84-.89-1.38-1.18"/>
        <path class="cls-1" d="M67.84,265.57c2.33,2.31,5.71,3.5,8.97,3.18.66-.07,1.31-.19,1.93-.42,1.18-.44,2.21-1.28,2.89-2.34"/>
        <path class="cls-1" d="M57.09,207.52c1.49,1.06,3.75.85,5.01-.48"/>
        <path class="cls-1" d="M60.12,207.15c1.13.24,2.3.48,3.43.27.35-.07.71-.18,1.06-.12.99.17,1.27,1.43,1.34,2.44-1.44-.78-3.03-1.27-4.65-1.42"/>
        <path class="cls-1" d="M62.88,207.26c2.86,1.55,5.45,3.6,7.64,6.01"/>
        <path class="cls-1" d="M64.29,207.35c.7.16,1.28.64,1.82,1.13,1.51,1.36,2.89,2.86,4.14,4.47.41.53.89,1.12,1.56,1.2"/>
      </g>
      <g>
        <path class="cls-4" d="M122.56,251.78c.75-1.12,1.46-2.27,2.14-3.45.33-.57.65-1.15.88-1.77.45-1.17.57-2.44.69-3.69"/>
        <path class="cls-4" d="M110.58,228.15c3.24,3.01,5.37,7.2,5.89,11.59.18,1.52.16,3.11-.47,4.5"/>
        <path class="cls-4" d="M111.16,271.77c1.16-1.6,2.04-3.4,2.6-5.29"/>
        <path class="cls-4" d="M109.82,268.33c1.12-1.65,2.03-3.45,2.71-5.34"/>
        <path class="cls-4" d="M108.55,264.81c1.14-1.57,2.04-3.32,2.63-5.16"/>
        <path class="cls-4" d="M107.97,260.13c.87-1.25,1.56-2.63,2.04-4.08"/>
        <path class="cls-4" d="M106.85,256.75c1.04-1.04,1.8-2.34,2.2-3.76"/>
        <path class="cls-4" d="M94.65,254.47c3.11,3.68,5.81,7.71,8.02,11.99"/>
        <path class="cls-4" d="M77.54,258.42c1.09-.03,2.19.14,3.23.51.85.3,1.65.72,2.43,1.17,5.13,2.96,9.58,7.1,12.88,12.02"/>
        <path class="cls-4" d="M81.72,270.93c7.84,2.51,14.88,7.47,19.89,14"/>
        <path class="cls-4" d="M106.89,274.77c-.48,1.89.55,3.8,1.38,5.57,1.49,3.16,2.45,6.58,2.81,10.06"/>
        <path class="cls-4" d="M63.78,235.9c-.29-2.49,1.64-5.02,4.12-5.41,1.25-.19,2.52.1,3.7.54,1.15.43,2.29,1.03,3.05,1.99"/>
        <path class="cls-4" d="M61.71,247.95c-.14,1.01,1.01,1.78,2.03,1.81s2.01-.39,3.03-.45c.72-.04,1.45.09,2.16.23.94.18,1.89.36,2.83.54"/>
        <path class="cls-4" d="M78.53,235.37c1.69,1.51,3.38,3.03,5.07,4.54.43.39.88.79,1.12,1.32"/>
        <path class="cls-4" d="M71.06,223.18c4.26-1.47,9.06.31,12.51,3.19,3.46,2.88,5.92,6.75,8.65,10.32"/>
        <path class="cls-4" d="M66.16,232.4c-.94.88-1.46,2.18-1.38,3.46"/>
        <path class="cls-4" d="M62.77,247.94c.18.41.66.67,1.1.58"/>
        <path class="cls-4" d="M84.79,239.6c1.39,1.39,2.83,2.73,4.32,4"/>
        <path class="cls-4" d="M93.49,238.33c1.05,1.42,2.02,2.9,2.91,4.44"/>
        <path class="cls-4" d="M95.06,242.59c.87,1.25,1.64,2.57,2.31,3.94"/>
        <path class="cls-4" d="M111.82,231.68c1.71,2.22,2.77,4.94,3.02,7.73"/>
        <path class="cls-4" d="M126.18,235.65c.38,1.45.56,2.96.54,4.46"/>
        <path class="cls-4" d="M111.81,227.82c1.7,1.3,3.16,2.92,4.27,4.76"/>
        <path class="cls-4" d="M114.88,188.47c1.95,2.02,3.03,4.77,3.33,7.56.3,2.79-.12,5.61-.87,8.32"/>
        <path class="cls-4" d="M114.7,190.16c2.04,2.84,2.86,6.53,2.22,9.97"/>
        <path class="cls-4" d="M112.36,217.39c2.2-3.05,3-6.87,3.74-10.55.03-.15-.06-.39-.18-.3"/>
        <path class="cls-4" d="M99.01,190.77l-1.42.74c-.31.16-.63.34-.8.64-.12.22-.14.49-.14.74,0,.53.07,1.06.21,1.57"/>
        <path class="cls-4" d="M97.55,195.85c.41.91,1.02,1.73,1.76,2.39"/>
        <path class="cls-4" d="M107.09,190.47c1.12,1.69,1.36,3.8,1.45,5.82.03.61.05,1.23.06,1.84"/>
        <path class="cls-4" d="M103.78,189.72c1.65.79,2.9,2.37,3.29,4.16"/>
        <path class="cls-4" d="M89.61,197.82l-.39.13c-.32.93-.12,1.97.29,2.86s1.02,1.68,1.55,2.5c1.73,2.64,2.76,5.73,2.98,8.88"/>
        <path class="cls-4" d="M94.82,214.16c.51,2.28,1,4.57,1.45,6.86"/>
        <path class="cls-4" d="M102.39,205.76l-.28-.57c.69,1.46,1,3.06,1.31,4.64.54,2.78,1.09,5.65.45,8.41.02.13.23.16.29.05s-.11-.26-.22-.19"/>
        <path class="cls-4" d="M106.71,209.91c.95,3.3.89,6.8.69,10.22"/>
        <path class="cls-4" d="M79.45,170.27c1.01,2.22,2.16,4.47,4.05,6s4.74,2.14,6.79.82c.53-.34,1-.81,1.61-.99.36-.11.74-.11,1.1,0"/>
        <path class="cls-4" d="M95.34,156.82c1.46.43,2.65,1.54,3.44,2.84s1.23,2.78,1.58,4.26c.32,1.38.57,2.78.74,4.19"/>
        <path class="cls-4" d="M103.23,154.33c1.31,1.43,2.64,2.88,3.51,4.62.51,1.03.85,2.15,1.13,3.27.72,2.92,1.02,5.96.69,8.96,0,.06-.03.14-.09.15s-.08-.12-.02-.1"/>
        <path class="cls-4" d="M104.57,153.42c.49,0,.95.22,1.39.45.63.33,1.27.66,1.81,1.11.94.79,1.54,1.9,2.03,3.02"/>
        <path class="cls-4" d="M101.14,183.82c.27.08.55-.05.81-.17,1.37-.62,2.97-.71,4.4-.26.2.06.42.14.62.06.11-.05.2-.14.29-.22.74-.71,1.75-1.14,2.78-1.19-.07.06-.13.12-.2.17"/>
        <path class="cls-4" d="M85.46,185.43c.82.93,1.22,2.15,1.59,3.33.27.86.54,1.72.82,2.58"/>
        <path class="cls-4" d="M85.1,163.51c.37,2.05,1.36,3.99,2.8,5.49.21.22.47.45.77.47"/>
        <path class="cls-4" d="M90.4,162.53c2.28,1.24,4.39,2.86,5.9,4.97,1.51,2.11,2.39,4.73,2.11,7.31-.1.91-.34,1.81-.35,2.73s.23,1.9.93,2.5"/>
        <path class="cls-4" d="M100.68,173.68c-.73,1.36-.32,3.03.12,4.51.36,1.22.72,2.45,1.07,3.67"/>
        <path class="cls-4" d="M92.13,165.51c2.51,2.35,5.05,5.23,5.02,8.67"/>
        <path class="cls-4" d="M32.39,160.1c7.42.13,14.53,3.4,20.37,7.99,5.84,4.58,10.56,10.42,15.02,16.35,3.68,4.89,7.22,9.88,10.62,14.97"/>
        <path class="cls-4" d="M14.02,190.89c.07-3.4,1.1-6.77,2.94-9.62,2.46-3.81,6.62-6.74,11.16-6.82,4.13-.07,7.92,2.1,11.46,4.21,6.22,3.7,12.43,7.4,18.65,11.1"/>
        <path class="cls-4" d="M17.91,202.37c-1.16.41-1.5,2.07-.84,3.11s1.98,1.49,3.22,1.48,2.43-.39,3.63-.67c2.18-.51,4.45-.68,6.68-.5"/>
        <path class="cls-4" d="M32.98,205.5c3.56.38,7.06,1.32,10.33,2.79"/>
        <path class="cls-4" d="M24.88,179.19c1.24.23,2.51-.16,3.76-.32,4.69-.61,9.18,1.96,12.98,4.78,3.8,2.82,7.51,6.08,12.11,7.19"/>
        <path class="cls-4" d="M25.33,185.61c3.89-.91,8.03-1.82,11.8-.48,4.63,1.65,7.73,6.39,12.47,7.67"/>
        <path class="cls-4" d="M46.58,167.72c4.88,1.83,9.07,5.21,12.54,9.1,3.47,3.89,6.29,8.32,9.1,12.72"/>
        <path class="cls-4" d="M57.79,203.91l3.99.03c1.16,0,2.34.02,3.47.3,1.76.43,3.3,1.46,4.71,2.59,2.84,2.28,5.31,5.03,7.27,8.1.05.08.1.18.05.26s-.21-.01-.14-.07"/>
        <path class="cls-4" d="M59.44,201.72c3.06-.87,6.4-.52,9.35.68,2.95,1.2,5.52,3.21,7.67,5.55,1.4,1.53,2.63,3.2,3.85,4.87,1.25,1.7,2.5,3.4,3.75,5.1"/>
        <path class="cls-4" d="M49.96,215.91c-.39,1.79-.74,3.58-1.03,5.39-.06.37-.11.78.08,1.1.12.2.32.34.53.46,1.53.92,3.42,1.22,5.15.82"/>
        <path class="cls-4" d="M54.61,210.87c2.66-.7,5.53-.31,8.09.71s4.83,2.64,6.93,4.42"/>
        <path class="cls-4" d="M56.01,212.02c4.4.19,8.74,1.75,12.25,4.43"/>
        <path class="cls-4" d="M51.09,231.05c-.7-.23-1.53.08-1.92.71s-.28,1.51.24,2.03,1.4.63,2.03.25"/>
        <path class="cls-4" d="M52.79,233.96c1.29.02,2.58.07,3.86.16"/>
        <path class="cls-4" d="M55.91,223.39c.1.13.3.12.46.08,1.7-.34,3.43-.7,4.92-1.58.3-.18.59-.38.86-.6"/>
        <path class="cls-4" d="M53.08,222.22c.29.07.58.11.88.12.4.01.8-.03,1.19-.07.2-.02.4-.04.6-.06.15-.02.3-.03.45-.06.34-.07.66-.21.94-.4,0,.07-.06.14-.14.15"/>
        <path class="cls-4" d="M40.86,126.17c6.11,2.34,11.42,6.75,14.83,12.33.42.09.34.86-.08.87s-.53-.76-.12-.86"/>
        <path class="cls-4" d="M58.2,150.37c3.69,3.83,7.43,7.73,10.01,12.38.83,1.5,1.54,3.08,2.56,4.47-.11-.13-.21-.26-.32-.4"/>
        <path class="cls-4" d="M42.24,151.19c11.69,3.73,20.72,13.06,28.03,22.93,2.9,3.91,5.61,7.97,8.13,12.14"/>
        <path class="cls-4" d="M24.11,30.06c-7.59,8.23-11.65,19.3-12.74,30.44s.62,22.4,3.45,33.23c4.33,16.55,11.28,32.41,20.52,46.81.28.44.57.92.51,1.43s-.7.95-1.11.63.3-1.11.56-.66"/>
        <path class="cls-4" d="M7.9,56.43c-2.36,9.81-2.12,20.14-.21,30.06s5.44,19.45,9.59,28.65c.1.23.2.52.04.71s-.57-.09-.37-.24"/>
        <path class="cls-4" d="M17.67,111.84c2.2,4.28,4.4,8.56,6.6,12.84"/>
        <path class="cls-4" d="M12.8,139.53c-2.19,1.69-2.7,5.19-1.08,7.43"/>
        <path class="cls-4" d="M20.87,141.54c1.1,1.31,1.75,2.99,1.81,4.7.04,1.2-.19,2.4-.12,3.59s.53,2.48,1.57,3.07"/>
        <path class="cls-4" d="M14.73,138.65c.29-.08.61-.06.89.05"/>
        <path class="cls-4" d="M54.54,114.75c.61,1.38,1.23,2.77,1.52,4.24.32,1.61.26,3.29-.19,4.86"/>
        <path class="cls-4" d="M58.66,128.91c.96-3.86.88-7.98-.23-11.8"/>
        <path class="cls-4" d="M61.19,104.16c.96.19,1.8.81,2.39,1.59s.96,1.71,1.22,2.65c.13.47.23.95.14,1.43"/>
        <path class="cls-4" d="M57.78,100.55c.44-.07.88-.05,1.33-.04.63.02,1.27.05,1.89.16,1.43.25,2.77.98,3.77,2.03"/>
        <path class="cls-4" d="M55.78,104.96c-.46.26-.78.73-.96,1.23s-.23,1.03-.28,1.56"/>
        <path class="cls-4" d="M37.45,43.29c-4.29,5.9-5.48,13.93-3.07,20.82"/>
        <path class="cls-4" d="M35.13,73.36c-3.91,3.27-5.32,9.2-3.3,13.88"/>
        <path class="cls-4" d="M33.9,95.23c5.72,3.52,8.95,10.67,7.82,17.28"/>
        <path class="cls-4" d="M30.57,114.23c-.18,7.66,4.75,14.44,9.94,20.07,5.19,5.64,11.05,11.09,13.55,18.33"/>
        <path class="cls-4" d="M58.32,9.18c3.04-.76,6.19-1.06,9.32-.9.8.04,1.62.12,2.36.44s1.39.94,1.56,1.73c.19.87-.21,1.75-.65,2.52-.38.66-.78,1.3-1.15,1.97-.74,1.33-1.32,2.75-1.74,4.21"/>
        <path class="cls-4" d="M54.12,43.59c-.16-1.43.16-2.87.5-4.27.42-1.73.89-3.47,1.68-5.07.79-1.6,1.92-3.07,3.44-4.01"/>
        <path class="cls-4" d="M42.96,39.3c1-1.13,2.67-1.59,4.11-1.14"/>
        <path class="cls-4" d="M48.44,38.31c.82.21,1.55.77,1.95,1.52"/>
        <path class="cls-4" d="M28.21,37.14c3.92-6.86,11.25-10.95,18.28-14.57,3.11-1.6,6.37-3.2,9.86-3.26"/>
        <path class="cls-4" d="M55.17,14.12c-3.64.07-7.26,1.12-10.38,3-2.49,1.5-4.63,3.49-6.76,5.47"/>
        <path class="cls-4" d="M80.89,17.83c7.57,3.84,14.49,9.22,19.27,16.23.08.12.03.39-.09.29"/>
        <path class="cls-4" d="M102.06,36.37c2.76,3.34,4.8,7.27,5.95,11.44"/>
        <path class="cls-4" d="M94.04,36.15c2.49,3.43,4.43,7.27,5.71,11.32"/>
        <path class="cls-4" d="M88.61,45.67c.39-1.94.43-3.95.1-5.91-.12-.7-.28-1.4-.16-2.1s.63-1.38,1.33-1.46"/>
        <path class="cls-4" d="M98.98,82.02c.05-3.34,2.88-5.86,4.9-8.52,2.69-3.55,4.16-8.01,4.11-12.46,0-.36-.27-.86-.57-.67"/>
        <path class="cls-4" d="M78.74,94.24c1.29,1.9,2.78,3.94,5.01,4.46,1.02.23,2.08.12,3.11-.02,2.36-.32,4.72-.76,6.93-1.64,4.57-1.83,8.31-5.62,10.07-10.21.13-.34.11-.89-.25-.88"/>
        <path class="cls-4" d="M90.55,68.68c-.02-.78.56-1.44,1.1-2,1.14-1.19,2.28-2.39,3.42-3.58-.05.13-.1.26-.15.39"/>
        <path class="cls-4" d="M74.97,27.4c3.73,3.2,7.59,6.59,9.38,11.16"/>
        <path class="cls-4" d="M66.54,147.09c.7-1.15.96-2.55.72-3.88"/>
      </g>
      <g>
        <path class="cls-6" d="M111.59,47.22c-4.1-17.28-17.55-31.98-34.33-37.75-.07.09-.13.19-.2.28.24.02.49.05.73.07-.2,5.91-4.6,10.09-9.05,14.37,8.41,4.69,14.35,14.23,15.91,23.71.25,1.51.56,3.29,1.94,3.95,1.69.81,3.6-.74,4.5-2.39,2.23-4.07,1.78-9.02,1.27-13.63,6.49,11.59,5.94,16.96,4.02,19.7-1.95,2.78-5.79,3.52-8.74,8.84-.55,1-2.52,4.54-1.39,5.74,1.39,1.48,6.84-1.22,10.1-3.56,4.08-2.93,6.43-6.53,7.71-8.92,1,2.62.49,5.63-.74,8.15-1.35,2.76-2.68,3.23-4.99,6.74-2.26,3.44-1.18,4.25-3.79,9.08-1.91,3.53-3.31,4.81-4.28,5.54-.72.55-2.43,1.83-4.59,2.18-5.49.87-9.35-5.1-10.69-4.16-1.54,1.08.52,11,7.37,14.18,6.13,2.84,13.09-1.1,14.56-1.93,13.88-7.85,19.11-31.54,14.69-50.18Z"/>
        <path class="cls-5" d="M18.38,149.12c-2.16-.03-4.28-1.94-4.88-4.02-.6-2.08,1.05-4.65,3.21-4.53,1.86.1,3.18,1.95,3.58,3.76.4,1.82.17,3.72.45,5.56.51,3.36,2.64,6.18,5.18,8.5,4.11-2.73,9.45-3.48,14.6-2.16,0-.1,0-.2,0-.31-.95-.99-1.87-1.99-2.81-2.99-1.42.84-3.29,1.02-4.88.47-2.38-.83-4.14-2.9-5.31-5.13-1.17-2.23-1.86-4.68-2.86-7-1-2.32-2.38-4.58-4.52-5.92-3.23-2.03-7.81-1.36-10.52,1.33s-3.47,7.06-2.07,10.61c.88,2.24,2.67,4.23,5.01,4.8,2.34.57,5.13-.68,5.82-2.98Z"/>
        <path class="cls-2" d="M59.97,115.95c-.95-1.6-2.34-2.92-3.18-4.58s-.99-3.92.38-5.18c1.59-1.46,4.5-.52,5.35,1.47s.43,4.8-1.23,6.2c1.99,1.35,4.94.53,6.38-1.39,1.45-1.92,1.56-4.6.82-6.89-1.17-3.63-4.54-6.53-8.33-6.88s-7.76,2.04-8.98,5.65c-.8,2.39-.43,5.02.26,7.44s1.72,4.76,2.23,7.22c.46,2.19.42,4.56-.51,6.57,1.1.89,2.25,1.87,3.46,2.98,1.1,1.01,2.11,2.16,3,3.4.59-1.2,1-2.53,1.28-3.8.91-4.09,1.18-8.62-.96-12.22Z"/>
        <path class="cls-3" d="M68.87,143.29c-.21-.74-.63-1.42-.79-2.18s.02-1.68.7-2.05c.8-.42,1.87.27,2,1.16s-.34,1.98-1.15,2.37c.66.75,1.93.74,2.72.12.79-.62,1.12-1.69,1.06-2.69-.09-1.59-1.14-3.11-2.63-3.65-1.49-.54-3.34,0-4.21,1.33-.58.88-.71,1.98-.68,3.02s.19,2.1.13,3.14-.36,2.14-1.12,2.86c-.12.12-.28.2-.42.29.71.95,1.46,1.97,2.24,3.03.51-.48.92-1.11,1.24-1.73.8-1.55,1.39-3.35.9-5.02Z"/>
        <path class="cls-6" d="M87.33,203.36c-.07-.11-.12-.24-.18-.35-1-1.59-2.06-3.8-.55-6.24-.03-.14-.04-.3-.08-.45-1.94-7.94-5.28-14.75-9.92-19.74-1.44-1.55-3.07-3.79-1.8-6.83.71-1.69,2.05-2.77,3.36-3.18-6.2-9.51-11.77-17.1-15.83-22.42,1.77-5.57-1.39-11.63-5.68-15.6-5.01-4.62-9.06-7.04-12.66-9.2,3.36-7.6,4.09-16.28-.18-23.2-2.05-3.33-5.09-6-6.92-9.45-1.84-3.45-2.04-8.35,1.07-10.72,2.62,1.66,4.82,4,6.31,6.72,2.52-2.95-.05-7.31-1.97-10.68-4.83-8.49-5.05-19.44-.56-28.12.76-1.47,1.7-2.93,3.12-3.75s3.46-.82,4.55.42c.59.67.82,1.57,1.04,2.44,1.11,4.43,2.21,8.87,3.32,13.3,3.2-1.91,4.51-5.88,4.91-9.59.4-3.7.16-7.53,1.34-11.06,3.39-10.13,17.4-15.17,17.77-25.84-.24-.02-.49-.05-.73-.07,1.79-2.38,3.13-4.7,4.12-6.68C51.39-6.96,17.01,13.65,5.67,42.97c-11.34,29.32-2.98,63.54,14.99,89.34,6,8.61,12.96,16.44,20.24,24.03.61.17,1.22.36,1.83.59,10.02,3.78,18.64,13.42,26.45,23.09,3.23,3.99,11.87,16.28,18.17,28.07.02-1.59.03-3.17-.02-4.72Z"/>
        <path class="cls-7" d="M108.86,267.34c-2.73-6.45-5.99-13.07-11.73-17.1-5.74-4.02-14.62-4.38-19.09,1.01,1.39.25,2.75.63,4.08,1.09-.68-.08-1.37-.11-2.05-.09-5.8.18-11.34,3.96-13.63,9.29,3.47,3.28,8.35,5.01,13.11,4.64-1.53,1.29-3.82,1.11-5.74.54s-3.82-1.46-5.82-1.36c-2,.1-4.12,1.73-3.82,3.71.33,2.19,3.04,2.95,5.21,3.37,7,1.35,13.68,4.18,19.59,8.14,6.06,4.06,9.79,11.63,15.42,15.38,17.53,11.66,7.05-22.48,4.46-28.63Z"/>
        <path class="cls-7" d="M74.32,253.66c1.81-.83,3.76-1.34,5.75-1.4.69-.02,1.37.02,2.05.09-1.33-.46-2.69-.84-4.08-1.09,4.47-5.4,13.35-5.03,19.09-1.01,5.74,4.02,9,10.64,11.73,17.1.03.07.06.16.09.23-.13-8.41-9.63-26.43-12.34-30.73-4.19-6.66-8.89-13.37-14.94-16.5-6.06-3.13-13.74-1.29-15.99,5.98,1.26-.07,2.53.02,3.8.21-.6.09-1.2.22-1.78.41-4.9,1.68-8.53,7.38-8.94,14.03,3.91,2.86,8.57,3.59,12.52,1.96-.93,1.86-2.93,2.23-4.74,2.06-1.8-.16-3.68-.7-5.35-.07-1.68.63-3.02,3.02-2.19,5.2.92,2.41,3.44,2.59,5.42,2.51,3.28-.12,6.6.23,9.9,1.02Z"/>
        <path class="cls-7" d="M54.42,207.69c.64-.28,1.31-.48,1.99-.63-1.46-.1-2.92-.08-4.35.11,1.91-8.5,10.5-11.29,17.68-8.27,7.19,3.02,13.16,10.23,18.54,17.44,1.21,1.61,3.5,5.05,6.01,9.23-2.13-13.29-20.13-39.36-25.12-45.54-7.81-9.66-16.43-19.31-26.45-23.09-10.02-3.78-21.6.54-23.68,12.37,1.94-.34,3.93-.44,5.94-.38-.92.25-1.82.56-2.68.98-7.28,3.54-11.81,13.17-11.15,23.68,6.63,3.75,14.02,4.02,19.84.73-1.09,3.09-4.13,4.04-6.96,4.12-2.83.08-5.85-.41-8.33.89-2.48,1.29-4.1,5.3-2.38,8.56,1.9,3.61,5.86,3.42,8.92,2.93,8.56-1.36,17.57-.63,26.49,1.94,1.5-2.28,3.42-4.08,5.7-5.07Z"/>
        <g>
          <path class="cls-7" d="M86.6,196.77s0,0,0-.01c1.37-2.2,3.96-2.75,5.26-1.79,1.31.96,1.77,2.89,2.5,4.5.73,1.61,1.98,3.02,3.94,2.5-3.21-2.15-4.84-6.54-4.38-11.77,5.6-4.29,11.96-5.23,15.65-2.33.44.34.83.75,1.18,1.19-.45-1.19-.99-2.3-1.64-3.3,1.16-.53,2.26-.81,3.31-.91,2.01-8.77,3.47-17.68,1.9-24.76-1.75-7.94-8.59-12.5-15.94-7.44.93.97,1.75,2.09,2.49,3.31-.49-.41-1.01-.78-1.57-1.06-4.76-2.43-11.83,0-17.4,5.98.47,5.92,3.15,10.44,7.21,12.14-2.13,1-3.82-.29-4.95-1.93-1.13-1.63-2.02-3.68-3.69-4.46-1.67-.78-4.51.39-5.66,3.14-1.27,3.04.35,5.28,1.8,6.83,4.64,4.99,7.98,11.8,9.92,19.74.03.14.05.3.08.44Z"/>
          <path class="cls-7" d="M92.39,218.91c-.74-5.9-2.4-11.23-5.07-15.58.05,1.56.06,3.15.03,4.76,2,3.75,3.76,7.45,5.04,10.81Z"/>
        </g>
        <g>
          <path class="cls-7" d="M96.61,236.84c.21.34.48.78.77,1.28-.29-.5-.55-.94-.77-1.28Z"/>
          <path class="cls-7" d="M96.61,236.84c-.67-1.07-1.37-2.14-2.08-3.2.71,1.06,1.4,2.13,2.08,3.2Z"/>
          <path class="cls-7" d="M92.12,230.19c.75,1.01,1.47,2.05,2.18,3.1-.71-1.06-1.43-2.09-2.18-3.1Z"/>
          <path class="cls-7" d="M99.55,242.08c-.34-.64-.66-1.23-.96-1.79.3.56.63,1.16.96,1.79Z"/>
          <path class="cls-7" d="M109.11,185.76c.65,1,1.19,2.11,1.64,3.3-.36-.44-.75-.84-1.18-1.19-3.7-2.9-10.06-1.96-15.65,2.33-.46,5.23,1.18,9.62,4.38,11.77-1.95.52-3.21-.89-3.94-2.5-.73-1.61-1.19-3.54-2.5-4.5-1.31-.96-3.89-.41-5.26,1.79-1.52,2.44-.46,4.66.55,6.25,3.23,5.12,5.09,11.61,5.59,18.85.03.39.02.79.03,1.19,2.18,3.5,4.69,7.81,6.89,12.15-.12-.45-.23-.91-.36-1.36-.63-2.12-1.22-4.92.46-6.66,1.52-1.58,3.83-.87,4.82.75.99,1.62,1.1,3.82,1.49,5.83.14.7.34,1.41.61,2.05.24-.42.48-.84.72-1.26-1.01-3.19-1.16-6.87-.33-10.49,2.02-.6,4.06-.68,5.97-.31,1.04-2.13,1.84-3.88,2.3-4.97,3.41-8.11,6.61-16.69,6.26-23.89-.35-7.21-5.5-12.32-12.48-9.13Z"/>
          <path class="cls-7" d="M98.37,239.88c-.28-.52-.55-.98-.79-1.41.25.43.51.89.79,1.41Z"/>
          <path class="cls-7" d="M100.84,244.58c-.37-.74-.73-1.44-1.08-2.11.35.67.71,1.38,1.08,2.11Z"/>
        </g>
        <g>
          <path class="cls-7" d="M101.31,245.51s0,0,0,0c.86,1.74,1.75,3.62,2.6,5.54-.85-1.92-1.74-3.8-2.6-5.54Z"/>
          <path class="cls-7" d="M120.86,226.99c.42,1.34.71,2.75.92,4.18-.24-.63-.52-1.23-.85-1.8-2.76-4.79-8.4-6.95-13.88-5.32-1.17,5.13-.42,10.42,2.03,14.19-1.77-.43-2.64-2.49-3.03-4.49-.39-2.01-.5-4.21-1.49-5.83-.99-1.62-3.3-2.33-4.82-.75-1.68,1.75-1.09,4.54-.46,6.66.13.44.23.9.35,1.35,3.69,7.28,6.49,14.6,5.25,18.13-.23-.54-.47-1.08-.7-1.61,2.54,5.79,4.69,11.9,4.75,15.87-.03-.07-.07-.16-.09-.23.67,1.58,1.85,5.01,2.95,9.04,4.3-5.02,8.12-10.34,9.5-12.55,4.16-6.62,8.21-13.82,8.98-21.36.78-7.54-2.92-15.3-9.43-15.47Z"/>
        </g>
        <path class="cls-7" d="M67.69,226.95c.58-.2,1.17-.33,1.78-.41-1.27-.19-2.54-.28-3.8-.21,2.25-7.27,9.94-9.11,15.99-5.98,6.05,3.13,10.75,9.84,14.94,16.5,1.55,2.46,5.32,9.41,8.29,16.48,2.63-7.45-12.7-31.75-16.61-36.99-5.38-7.21-11.35-14.43-18.54-17.44-7.19-3.02-15.78-.22-17.68,8.27,1.43-.19,2.88-.21,4.35-.11-.68.15-1.35.36-1.99.63-5.43,2.36-9.05,9.19-8.91,16.81,4.71,2.9,10.1,3.31,14.45,1.09-.89,2.2-3.14,2.81-5.21,2.78-2.07-.02-4.26-.46-6.11.41-1.85.87-3.16,3.71-2.02,6.12,1.27,2.66,4.16,2.64,6.41,2.37,2.11-.25,4.24-.31,6.4-.22,1.31-4.88,4.38-8.77,8.27-10.1Z"/>
      </g>
      <g>
        <path class="cls-8" d="M58.26,422.6c4.1,17.28,17.55,31.98,34.33,37.75.07-.09.13-.19.2-.28-.24-.02-.49-.05-.73-.07.2-5.91,4.6-10.09,9.05-14.37-8.41-4.69-14.35-14.23-15.91-23.71-.25-1.51-.56-3.29-1.94-3.95-1.69-.81-3.6.74-4.5,2.39-2.23,4.07-1.78,9.02-1.27,13.63-6.49-11.59-5.94-16.96-4.02-19.7,1.95-2.78,5.79-3.52,8.74-8.84.55-1,2.52-4.54,1.39-5.74-1.39-1.48-6.84,1.22-10.1,3.56-4.08,2.93-6.43,6.53-7.71,8.92-1-2.62-.49-5.63.74-8.15,1.35-2.76,2.68-3.23,4.99-6.74,2.26-3.44,1.18-4.25,3.79-9.08,1.91-3.53,3.31-4.81,4.28-5.54.72-.55,2.43-1.83,4.59-2.18,5.49-.87,9.35,5.1,10.69,4.16,1.54-1.08-.52-11-7.37-14.18-6.13-2.84-13.09,1.1-14.56,1.93-13.88,7.85-19.11,31.54-14.69,50.18Z"/>
        <path class="cls-8" d="M151.47,320.7c2.16.03,4.28,1.94,4.88,4.02.6,2.08-1.05,4.65-3.21,4.53-1.86-.1-3.18-1.95-3.58-3.76-.4-1.82-.17-3.72-.45-5.56-.51-3.36-2.64-6.18-5.18-8.5-4.11,2.73-9.45,3.48-14.6,2.16,0,.1,0,.2,0,.31.95.99,1.87,1.99,2.81,2.99,1.42-.84,3.29-1.02,4.88-.47,2.38.83,4.14,2.9,5.31,5.13,1.17,2.23,1.86,4.68,2.86,7,1,2.32,2.38,4.58,4.52,5.92,3.23,2.03,7.81,1.36,10.52-1.33s3.47-7.06,2.07-10.61c-.88-2.24-2.67-4.23-5.01-4.8-2.34-.57-5.13.68-5.82,2.98Z"/>
        <path class="cls-8" d="M109.87,353.88c.95,1.6,2.34,2.92,3.18,4.58s.99,3.92-.38,5.18c-1.59,1.46-4.5.52-5.35-1.47s-.43-4.8,1.23-6.2c-1.99-1.35-4.94-.53-6.38,1.39-1.45,1.92-1.56,4.6-.82,6.89,1.17,3.63,4.54,6.53,8.33,6.88s7.76-2.04,8.98-5.65c.8-2.39.43-5.02-.26-7.44s-1.72-4.76-2.23-7.22c-.46-2.19-.42-4.56.51-6.57-1.1-.89-2.25-1.87-3.46-2.98-1.1-1.01-2.11-2.16-3-3.4-.59,1.2-1,2.53-1.28,3.8-.91,4.09-1.18,8.62.96,12.22Z"/>
        <path class="cls-8" d="M100.97,326.54c.21.74.63,1.42.79,2.18s-.02,1.68-.7,2.05c-.8.42-1.87-.27-2-1.16s.34-1.98,1.15-2.37c-.66-.75-1.93-.74-2.72-.12-.79.62-1.12,1.69-1.06,2.69.09,1.59,1.14,3.11,2.63,3.65,1.49.54,3.34,0,4.21-1.33.58-.88.71-1.98.68-3.02s-.19-2.1-.13-3.14.36-2.14,1.12-2.86c.12-.12.28-.2.42-.29-.71-.95-1.46-1.97-2.24-3.03-.51.48-.92,1.11-1.24,1.73-.8,1.55-1.39,3.35-.9,5.02Z"/>
        <path class="cls-8" d="M82.51,266.46c.07.11.12.24.18.35,1,1.59,2.06,3.8.55,6.24.03.14.04.3.08.45,1.94,7.94,5.28,14.75,9.92,19.74,1.44,1.55,3.07,3.79,1.8,6.83-.71,1.69-2.05,2.77-3.36,3.18,6.2,9.51,11.77,17.1,15.83,22.42-1.77,5.57,1.39,11.63,5.68,15.6,5.01,4.62,9.06,7.04,12.66,9.2-3.36,7.6-4.09,16.28.18,23.2,2.05,3.33,5.09,6,6.92,9.45,1.84,3.45,2.04,8.35-1.07,10.72-2.62-1.66-4.82-4-6.31-6.72-2.52,2.95.05,7.31,1.97,10.68,4.83,8.49,5.05,19.44.56,28.12-.76,1.47-1.7,2.93-3.12,3.75s-3.46.82-4.55-.42c-.59-.67-.82-1.57-1.04-2.44-1.11-4.43-2.21-8.87-3.32-13.3-3.2,1.91-4.51,5.88-4.91,9.59-.4,3.7-.16,7.53-1.34,11.06-3.39,10.13-17.4,15.17-17.77,25.84.24.02.49.05.73.07-1.79,2.38-3.13,4.7-4.12,6.68,29.8,10.03,64.17-10.58,75.51-39.9,11.34-29.32,2.98-63.54-14.99-89.34-6-8.61-12.96-16.44-20.24-24.03-.61-.17-1.22-.36-1.83-.59-10.02-3.78-18.64-13.42-26.45-23.09-3.23-3.99-11.87-16.28-18.17-28.07-.02,1.59-.03,3.17.02,4.72Z"/>
        <path class="cls-8" d="M60.99,202.48c2.73,6.45,5.99,13.07,11.73,17.1,5.74,4.02,14.62,4.38,19.09-1.01-1.39-.25-2.75-.63-4.08-1.09.68.08,1.37.11,2.05.09,5.8-.18,11.34-3.96,13.63-9.29-3.47-3.28-8.35-5.01-13.11-4.64,1.53-1.29,3.82-1.11,5.74-.54s3.82,1.46,5.82,1.36c2-.1,4.12-1.73,3.82-3.71-.33-2.19-3.04-2.95-5.21-3.37-7-1.35-13.68-4.18-19.59-8.14-6.06-4.06-9.79-11.63-15.42-15.38-17.53-11.66-7.05,22.48-4.46,28.63Z"/>
        <path class="cls-8" d="M95.53,216.16c-1.81.83-3.76,1.34-5.75,1.4-.69.02-1.37-.02-2.05-.09,1.33.46,2.69.84,4.08,1.09-4.47,5.4-13.35,5.03-19.09,1.01-5.74-4.02-9-10.64-11.73-17.1-.03-.07-.06-.16-.09-.23.13,8.41,9.63,26.43,12.34,30.73,4.19,6.66,8.89,13.37,14.94,16.5,6.06,3.13,13.74,1.29,15.99-5.98-1.26.07-2.53-.02-3.8-.21.6-.09,1.2-.22,1.78-.41,4.9-1.68,8.53-7.38,8.94-14.03-3.91-2.86-8.57-3.59-12.52-1.96.93-1.86,2.93-2.23,4.74-2.06,1.8.16,3.68.7,5.35.07,1.68-.63,3.02-3.02,2.19-5.2-.92-2.41-3.44-2.59-5.42-2.51-3.28.12-6.6-.23-9.9-1.02Z"/>
        <path class="cls-8" d="M115.42,262.13c-.64.28-1.31.48-1.99.63,1.46.1,2.92.08,4.35-.11-1.91,8.5-10.5,11.29-17.68,8.27-7.19-3.02-13.16-10.23-18.54-17.44-1.21-1.61-3.5-5.05-6.01-9.23,2.13,13.29,20.13,39.36,25.12,45.54,7.81,9.66,16.43,19.31,26.45,23.09,10.02,3.78,21.6-.54,23.68-12.37-1.94.34-3.93.44-5.94.38.92-.25,1.82-.56,2.68-.98,7.28-3.54,11.81-13.17,11.15-23.68-6.63-3.75-14.02-4.02-19.84-.73,1.09-3.09,4.13-4.04,6.96-4.12,2.83-.08,5.85.41,8.33-.89,2.48-1.29,4.1-5.3,2.38-8.56-1.9-3.61-5.86-3.42-8.92-2.93-8.56,1.36-17.57.63-26.49-1.94-1.5,2.28-3.42,4.08-5.7,5.07Z"/>
        <g>
          <path class="cls-8" d="M83.25,273.05s0,0,0,.01c-1.37,2.2-3.96,2.75-5.26,1.79-1.31-.96-1.77-2.89-2.5-4.5-.73-1.61-1.98-3.02-3.94-2.5,3.21,2.15,4.84,6.54,4.38,11.77-5.6,4.29-11.96,5.23-15.65,2.33-.44-.34-.83-.75-1.18-1.19.45,1.19.99,2.3,1.64,3.3-1.16.53-2.26.81-3.31.91-2.01,8.77-3.47,17.68-1.9,24.76,1.75,7.94,8.59,12.5,15.94,7.44-.93-.97-1.75-2.09-2.49-3.31.49.41,1.01.78,1.57,1.06,4.76,2.43,11.83,0,17.4-5.98-.47-5.92-3.15-10.44-7.21-12.14,2.13-1,3.82.29,4.95,1.93,1.13,1.63,2.02,3.68,3.69,4.46,1.67.78,4.51-.39,5.66-3.14,1.27-3.04-.35-5.28-1.8-6.83-4.64-4.99-7.98-11.8-9.92-19.74-.03-.14-.05-.3-.08-.44Z"/>
          <path class="cls-8" d="M77.46,250.91c.74,5.9,2.4,11.23,5.07,15.58-.05-1.56-.06-3.15-.03-4.76-2-3.75-3.76-7.45-5.04-10.81Z"/>
        </g>
        <g>
          <path class="cls-8" d="M73.23,232.98c-.21-.34-.48-.78-.77-1.28.29.5.55.94.77,1.28Z"/>
          <path class="cls-8" d="M73.23,232.98c.67,1.07,1.37,2.14,2.08,3.2-.71-1.06-1.4-2.13-2.08-3.2Z"/>
          <path class="cls-8" d="M77.72,239.63c-.75-1.01-1.47-2.05-2.18-3.1.71,1.06,1.43,2.09,2.18,3.1Z"/>
          <path class="cls-8" d="M70.29,227.74c.34.64.66,1.23.96,1.79-.3-.56-.63-1.16-.96-1.79Z"/>
          <path class="cls-8" d="M60.73,284.06c-.65-1-1.19-2.11-1.64-3.3.36.44.75.84,1.18,1.19,3.7,2.9,10.06,1.96,15.65-2.33.46-5.23-1.18-9.62-4.38-11.77,1.95-.52,3.21.89,3.94,2.5.73,1.61,1.19,3.54,2.5,4.5,1.31.96,3.89.41,5.26-1.79,1.52-2.44.46-4.66-.55-6.25-3.23-5.12-5.09-11.61-5.59-18.85-.03-.39-.02-.79-.03-1.19-2.18-3.5-4.69-7.81-6.89-12.15.12.45.23.91.36,1.36.63,2.12,1.22,4.92-.46,6.66-1.52,1.58-3.83.87-4.82-.75-.99-1.62-1.1-3.82-1.49-5.83-.14-.7-.34-1.41-.61-2.05-.24.42-.48.84-.72,1.26,1.01,3.19,1.16,6.87.33,10.49-2.02.6-4.06.68-5.97.31-1.04,2.13-1.84,3.88-2.3,4.97-3.41,8.11-6.61,16.69-6.26,23.89.35,7.21,5.5,12.32,12.48,9.13Z"/>
          <path class="cls-8" d="M71.47,229.94c.28.52.55.98.79,1.41-.25-.43-.51-.89-.79-1.41Z"/>
          <path class="cls-8" d="M69,225.24c.37.74.73,1.44,1.08,2.11-.35-.67-.71-1.38-1.08-2.11Z"/>
        </g>
        <g>
          <path class="cls-8" d="M68.53,224.31s0,0,0,0c-.86-1.74-1.75-3.62-2.6-5.54.85,1.92,1.74,3.8,2.6,5.54Z"/>
          <path class="cls-8" d="M48.98,242.83c-.42-1.34-.71-2.75-.92-4.18.24.63.52,1.23.85,1.8,2.76,4.79,8.4,6.95,13.88,5.32,1.17-5.13.42-10.42-2.03-14.19,1.77.43,2.64,2.49,3.03,4.49.39,2.01.5,4.21,1.49,5.83.99,1.62,3.3,2.33,4.82.75,1.68-1.75,1.09-4.54.46-6.66-.13-.44-.23-.9-.35-1.35-3.69-7.28-6.49-14.6-5.25-18.13.23.54.47,1.08.7,1.61-2.54-5.79-4.69-11.9-4.75-15.87.03.07.07.16.09.23-.67-1.58-1.85-5.01-2.95-9.04-4.3,5.02-8.12,10.34-9.5,12.55-4.16,6.62-8.21,13.82-8.98,21.36-.78,7.54,2.92,15.3,9.43,15.47Z"/>
        </g>
        <path class="cls-8" d="M102.15,242.87c-.58.2-1.17.33-1.78.41,1.27.19,2.54.28,3.8.21-2.25,7.27-9.94,9.11-15.99,5.98-6.05-3.13-10.75-9.84-14.94-16.5-1.55-2.46-5.32-9.41-8.29-16.48-2.63,7.45,12.7,31.75,16.61,36.99,5.38,7.21,11.35,14.43,18.54,17.44,7.19,3.02,15.78.22,17.68-8.27-1.43.19-2.88.21-4.35.11.68-.15,1.35-.36,1.99-.63,5.43-2.36,9.05-9.19,8.91-16.81-4.71-2.9-10.1-3.31-14.45-1.09.89-2.2,3.14-2.81,5.21-2.78,2.07.02,4.26.46,6.11-.41,1.85-.87,3.16-3.71,2.02-6.12-1.27-2.66-4.16-2.64-6.41-2.37-2.11.25-4.24.31-6.4.22-1.31,4.88-4.38,8.77-8.27,10.1Z"/>
      </g>
      <g>
        <g>
          <path class="cls-1" d="M43.74,240.67c.46.42.96.77,1.49,1.08,1.03.6,2.18.97,3.45,1.05,0-.31-.11-.63-.42-.85-3.13-2.25-4.07-6.4-4.54-10.01-.31-2.34-.42-4.78.13-7.09.49-2.08,1.51-3.96,2.52-5.82,1.61-2.97,3.24-5.94,4.92-8.87.81-.91,1.65-1.81,2.59-2.58-.03.02.24-.19.14-.12-.08.06.09-.07.11-.08.13-.09.26-.18.39-.26.12-.07.24-.14.36-.21.04-.02.07-.04.11-.05.28.2.54.42.84.69.84.75,1.62,1.64,2.2,2.47.68.95,1.27,1.96,1.8,3,.54,1.07.98,2.07,1.39,3.12.27.68.51,1.38.75,2.06.16.6.3,1.19.45,1.79.16.74.31,1.48.48,2.22.77,3.38,2.11,6.35,3.79,9.36,1.55,2.78,3.2,5.64,3.41,8.89.05.73.71,1.03,1.26.93,1.37,5.13,2.75,10.27,4.45,15.31,1.63,4.84,4.15,9.65,4.59,14.8,0,.08.04.14.06.22-.06.36-.16.71-.29,1.05-.16.36-.35.7-.59,1.01.05-.06.09-.12.13-.17-.1.09-.17.2-.2.32-.06.12-.09.25-.09.39,0,.25.11.54.29.71.19.18.44.31.71.29.19,0,.41-.08.57-.2-.06.07-.12.14-.15.24-.06.12-.09.25-.09.39.01.09.02.18.04.27,0,.03.04.05.05.08-.87-.41-1.81-.71-2.82-.94-.4-.09-.72.06-.94.29-.04,0-.08-.02-.12-.02-.15,0-.31.05-.45.13-.42-1.08-1.15-2.02-1.95-2.85-.44-.46-.91-.89-1.34-1.35-.22-.23-.44-.48-.64-.73-.02-.02-.04-.05-.05-.07-.08-.14-.07-.1-.04-.05-.03-.04-.05-.07-.08-.11-.1-.14-.2-.29-.29-.44-.09-.15-.17-.3-.25-.46-.01-.03-.03-.06-.04-.09-.01-.05-.07-.17-.08-.21-.06-.17-.11-.35-.14-.52,0-.03-.01-.06-.02-.09,0-.08-.02-.17-.02-.25-.02-.52-.45-1.03-1-1-.53.02-1.03.44-1,1,.06,1.53.84,2.82,1.81,3.95.43.5.91.96,1.38,1.42.23.22.45.45.66.68.1.11.21.23.3.34.05.06.1.12.15.17.02.03.05.06.07.09.21.28.4.57.56.88.04.08.08.15.11.23,0,.01.01.03.02.04,0,0,0-.01,0,.01.07.18.12.36.17.55.12.51.73.86,1.23.7.04,1.03-.08,2.02-.86,2.82-.94.96-2.23,1.66-3.47,2.14-1.32.51-2.72.81-4.13.87-.71.03-1.43,0-2.13-.1-.87-.11-1.71-.24-2.57-.02-.23.06-.44.16-.66.26-.01-.13-.05-.28-.14-.42-.75-1.31-1.25-2.74-1.65-4.19-.08-.02-.15-.07-.19-.14-.09-.16-.19-.31-.28-.47-.02,0-.03,0-.05,0-.32-.2-.61-.45-.79-.79-.06-.11-.1-.22-.15-.33-.38-.41-.79-.79-1.18-1.18,0,.04,0,.08,0,.12.3,2.82,1.15,5.54,2.56,8,.03.06.08.08.11.13-.8.27-1.61.4-2.45.39-.4,0-.66.19-.81.46.08,0,.15.01.23,0-.08.35-.15.71-.23,1.06-.5,2.25-.96,4.5-1.33,6.73-1.03,6.1-1.44,11.99-.34,16.97.73,3.32,2.37,6.04,4.55,7.72.91.7,1.91,1.21,2.98,1.51.11-.28.12-.6-.06-.83-6.96-9.04-5.72-21.03-4.46-31.65.71-.03,1.43-.12,2.11-.31.81-.23,1.53-.64,2.31-.95.84-.33,1.64-.17,2.5-.06.76.09,1.53.13,2.29.09,3.11-.15,6.56-1.29,8.81-3.53.67-.67,1.18-1.5,1.38-2.43.14-.69.14-1.38.1-2.07.82.19,1.64.39,2.37.8.9.5,1.44,1.29,1.89,2.2.93,1.88,1.57,3.92,2.14,5.93,1.18,4.13,2,8.38,3.64,12.37.47,1.13.97,2.28,1.61,3.33.41.67,1,1.23,1.7,1.45.1-.02.2-.01.3-.05.03.05.06.09.09.13,1.31,2,2.57,3.88,3.81,5.71,2.45,3.6,4.75,6.86,6.85,9.75.23.31.47.65.69.96-.51.48-.92,1.11-1.24,1.73-.8,1.55-1.39,3.35-.9,5.02.21.74.63,1.42.79,2.18s-.02,1.68-.7,2.05c-.8.42-1.87-.27-2-1.16s.34-1.98,1.15-2.37c-.33-.37-.8-.55-1.29-.57-.51-.02-1.03.14-1.43.45-.79.62-1.12,1.69-1.06,2.69.09,1.59,1.14,3.11,2.63,3.65,1.49.54,3.34,0,4.21-1.33.58-.88.71-1.98.68-3.02s-.19-2.1-.13-3.14c.05-1,.34-2.03,1.03-2.76.03-.03.05-.08.09-.11.12-.12.28-.2.42-.29.76,1.01,1.48,1.96,2.15,2.85-.33,1.04-.49,2.09-.5,3.14-.03,2.75.94,5.49,2.46,7.95.23.37.47.75.72,1.11-.06.12-.1.26-.16.39-.4.88-.7,1.81-.94,2.74-.06.22-.14.45-.18.67-.21.94-.38,1.9-.5,2.87-.4,3.25-.19,6.58,1.46,9.36.05.08.1.15.15.22.95,1.5,2.23,2.78,3.03,4.36.84,1.66.99,3.92-.38,5.18-1.59,1.46-4.5.52-5.35-1.47-.75-1.75-.45-4.09.74-5.59-.96-.82-2.82-.75-3.4.84-1.02,2.79.62,7.67,3.27,9.14,3.61,2.01,7.3-1.2,7.71-4.82.45-3.9-1.63-7.85-2.59-11.54-.62-2.36-.93-4.86-.36-7.17,1,1.35,2.11,2.46,3.34,3.43.12-.77.3-1.52.63-2.23,2.66,2.13,5.04,3.68,7.23,5.03.67.41,1.33.81,1.97,1.19-.27.62-.5,1.25-.73,1.87-2.68,7.13-3.01,14.96.91,21.32,1.16,1.88,2.62,3.56,4.02,5.28,1.07,1.32,2.11,2.67,2.91,4.17,1.4,2.64,1.84,6.1.59,8.66-.39.79-.92,1.5-1.66,2.07-2.22-1.41-4.11-3.32-5.55-5.52-.26-.4-.53-.78-.76-1.2-.31.36-.54.75-.71,1.15-1.19,2.86.99,6.57,2.68,9.53,4.11,7.22,4.85,16.21,2.23,24.08-.46,1.38-.99,2.75-1.66,4.04-.2.39-.42.79-.66,1.17-.64,1.04-1.42,1.98-2.46,2.58-1.04.6-2.4.75-3.49.3-.14-.06-.26-.16-.39-.24-.24-.14-.48-.27-.67-.49-.17-.2-.27-.44-.39-.67-.29-.55-.5-1.15-.65-1.76-.66-2.63-1.31-5.25-1.97-7.88-.45-1.81-.9-3.61-1.35-5.42-3.2,1.91-4.51,5.88-4.91,9.59-.38,3.52-.22,7.14-1.21,10.53-.05.18-.07.36-.13.53-1.4,4.18-4.61,7.5-7.93,10.7-.26.26-.53.51-.79.77-7.46-4.16-12.96-12.14-15.2-20.51-.29-1.07-.54-2.14-.71-3.21-.25-1.51-.56-3.29-1.94-3.95-1.69-.81-3.6.74-4.5,2.39-.02.04-.04.09-.06.13-2.16,4.04-1.72,8.94-1.21,13.5-6.49-11.59-5.94-16.96-4.02-19.7,1.49-2.11,4.06-3.06,6.5-5.72.77-.84,1.53-1.84,2.24-3.11.55-1,2.52-4.54,1.39-5.74-1.15-1.23-5.06.41-8.22,2.34-.67.4-1.31.82-1.87,1.22-4.08,2.93-6.43,6.53-7.71,8.92-1-2.62-.49-5.63.74-8.15,1.35-2.76,2.68-3.23,4.99-6.74,2.26-3.44,1.18-4.25,3.79-9.08,1.91-3.53,3.31-4.81,4.28-5.54.72-.55,2.43-1.83,4.59-2.18,5.49-.87,9.35,5.1,10.69,4.16.69-.48.65-2.73-.2-5.34-.17-.13-.33-.27-.53-.39-5.53-3.28-13.15-6.31-18.79-1.57-2.77,2.32-4.32,5.97-5.89,9.15-1.83,3.7-3.48,7.51-4.95,11.37-1.86,4.91-5.76,13.66.34,17.34.75.45,1.52.7,2.28.82-.18,1.24-.28,2.49-.18,3.77.33,4.13,1.79,8.02,3.48,11.77,1.5,3.34,3.56,6.56,7.38,7.38,2.63.57,4.94-1.17,5.08-3.87.04-.71.07-1.43.11-2.14.04.1.08.2.12.3,1.02,2.61,1.92,5.29,3.25,7.77,2.3,4.31,5.91,7.85,10.18,10.17-1.85,2.82-3.48,5.78-5.04,8.77.35.13.7.28,1.06.4-.94,1.28-1.74,2.52-2.44,3.72-.55.94-1.06,1.85-1.48,2.68,1.35.46,2.72.83,4.09,1.16,2.55.62,5.13,1.03,7.71,1.24.14-.4.27-.81.31-1.27.04-.52.15-1.11.23-1.68.65-.33,1.21-.82,1.54-1.5,2.97-6.05,6.67-11.71,11.16-16.74,1.98-2.22,4.25-4.98,6.71-6.56,1.15-.74,2.18-1.5,3.18-2.35,5.5-1.26,9.02-6,11.66-10.68,2.95-5.23,5.07-10.99,6.19-16.89,1.09-5.76,1.36-11.65.64-17.47-.8-6.44-3.12-12.31-4.78-18.53-1.72-6.45-1.26-13.17-2.54-19.7-1.18-5.98-3.92-11.62-6.97-16.84-6.68-11.4-14.29-21.81-23.16-31.58-4.76-5.24-8.09-10.66-10.08-17.48-1.19-4.06-2.1-8.19-3.19-12.27,7.37,10.89,15.44,21.26,25.38,29.86.4.43.84.81,1.31,1.15.37.3.7.64,1.07.94.51.41,1.06.62,1.6.68.23.13.45.27.69.4,2.22,1.94,4.86,3.41,7.7,4.2.24.07.49.04.74.05.09.04.18.09.27.13.92.41,1.99.43,2.88.02.36.08.71.19,1.07.25-.32.28-.55.64-.67,1.05,1.17-.35,2.47-.34,3.63.06,2.38.83,4.14,2.9,5.31,5.13,1.17,2.23,1.86,4.68,2.86,7,1,2.32,2.38,4.58,4.52,5.92,1.14.72,2.46,1.08,3.8,1.15-.93-.94-1.67-2.19-2.24-3.05-1.57-2.41-2.9-4.93-4.23-7.49-2.08-4.01-4.78-7.82-8.91-9.46,2.19-.12,2.56-3.27.43-3.92-15.76-4.8-26.89-17.41-36.92-29.89-5.74-7.82-10.94-16.09-16.15-24.24.48.56.94,1.14,1.43,1.69.57.65,1.18,1.26,1.77,1.89,1.38,1.75,2.83,3.46,4.44,5.04,2.32,2.28,4.9,4.3,7.71,5.92.69.4,1.34-.11,1.47-.72,1.15.54,2.33,1.01,3.55,1.36,1.24.35,1.77-1.58.53-1.93-4.68-1.33-8.58-4.33-11.89-7.81-3.66-3.85-6.75-8.23-9.81-12.56-1.97-2.79-3.9-5.61-5.78-8.47-.14-.21-.32-.32-.52-.39-1.47-2.39-2.99-4.76-4.64-7.04-.29-.4-.73-.49-1.11-.4-1.47-3.06-2.79-6.18-3.95-9.37-.44-1.2-2.37-.68-1.93.53,3.74,10.33,9.11,20.02,15.83,28.69-2.36-.98-5.56,1.52-3.83,4.21,1.85,2.88,3.7,5.79,5.56,8.69-.95.09-1.85.46-2.51,1.05-.93-3.95-2.67-7.7-3.98-11.53-1.77-5.2-3.19-10.52-4.61-15.82-.17-.62-.73-.8-1.21-.67-.32-3.07-1.63-5.84-3.12-8.53-1.53-2.76-2.87-5.43-3.72-8.44,0-.07.01-.13,0-.21-.22-.94-.47-1.87-.71-2.8.08-.2.12-.41.05-.61-.16-.47-.33-.94-.5-1.42-1.11-5-2.15-10.02-3.18-15.04.23.29.58.47.95.6.32.72.67,1.43,1.02,2.14.18.89.32,1.79.52,2.68.1.45.6.76,1.05.71.42,1.23.8,2.47,1.28,3.68.19.49.68.88,1.23.7.19-.06.36-.2.5-.36.79,1.04,1.62,2.06,2.52,3.02,2.89,3.09,6.3,5.68,10.14,7.49,1.16.55,2.18-1.18,1.01-1.73-6.84-3.22-11.75-8.6-15.3-14.93-.07-.22-.16-.43-.23-.66-1-4.23-.75-8.65-.44-12.95.13-1.79.31-3.69,1.1-5.32.38-.78.89-1.55,1.59-2.08.8-.59,1.66-.62,2.59-.34.64.2,1.26.48,1.87.77.05.08.12.16.17.25.23.41.6.53.95.47.28.24.57.46.85.7.2.17.43.31.67.41.09.06.17.14.25.2.98.72,2.03,1.32,3.11,1.85,2.68,2.03,5.58,3.76,8.66,5.15,3.2,1.44,6.53,2.57,9.93,3.44,1.25.32,1.78-1.61.53-1.93-5.81-1.49-11.43-3.76-16.4-7.14-.08-.35-.34-.64-.71-.77-.34-.12-.64-.31-.96-.46-.16-.12-.3-.25-.46-.37.03-.16.02-.32-.03-.48-.27-.23-.52-.48-.78-.73-.15-.14-.29-.28-.44-.42-1.4-1.36-2.72-2.84-3.99-4.36-2.6-3.11-5.1-6.25-8.15-8.28-12.93-8.6-10.62,7.71-7.48,19.33-.04.16-.09.33-.13.49-4.22,4.95-7.94,10.15-9.31,12.33-4.16,6.62-8.21,13.82-8.98,21.36-.53,5.18,1.04,10.46,4.19,13.31Z"/>
          <path class="cls-1" d="M128.16,295.28c5.44,3.31,11.77,6.47,18.28,4.56.17-.05.27-.17.38-.28.22.13.44.25.65.39.02-.01.05-.02.07-.03.62-.3,1.19-.7,1.76-1.09-3.69-2.68-8.22-3.66-12.43-5.31-2.56-1-4.82-2.45-6.93-4.21-2.11-1.75-4.11-3.65-6.39-5.18-2.21-1.49-4.7-2.62-7.39-2.85-1.09-.09-2.53-.12-2.98,1.12-.44,1.21.57,2.29,1.35,3.07,3.97,3.98,8.86,6.9,13.63,9.8Z"/>
          <path class="cls-1" d="M101.68,258.75c2.44,1.62,5.3,3.65,8.39,3.3.57-.06.89-.47.94-.91.06.03.12.07.18.1,1.74.81,3.56,1.35,5.48,1.49.54.04,1-.49,1-1,0-.58-.46-.96-1-1-3.49-.26-6.6-2.17-9.3-4.26-1.45-1.12-2.83-2.33-4.27-3.47-1.35-1.08-2.76-2.29-4.46-2.77-1.74-.48-3.64-.01-4.7,1.49-.24.34-.15.94.16,1.21,2.39,2.11,4.92,4.05,7.58,5.82Z"/>
          <path class="cls-1" d="M119.42,262.31c6.04.37,12.11.92,18.16.89,5.72-.03,11.43-.74,16.69-3.09.17-.08.28-.18.37-.3-.79-.52-1.67-.81-2.59-.95-.96-.15-1.96-.14-2.92-.05-6.56,1.78-11.3,1.34-14.52.52,0,0-3.88-.99-12.91-.72-.13,0-.51.01-.83.27-.16.12-.25.26-.3.34-.36.37-.47.82-.52,1.13-.21-.01-.42-.03-.63-.04-1.29-.08-1.28,1.93,0,2ZM128.87,260.92c1.91.09,3.67.17,5.26.22-1.75-.05-3.51-.12-5.26-.22Z"/>
          <path class="cls-1" d="M65.74,213.29c-.58-1.15-2.31-.14-1.73,1.01,5.19,10.34,10.52,20.83,18.3,29.51,2.19,2.45,4.58,4.71,7.16,6.74,1,.79,2.43-.62,1.42-1.42-9.07-7.15-15.31-17.02-20.66-27.1-1.54-2.89-3.01-5.82-4.48-8.75Z"/>
          <path class="cls-1" d="M98.74,242.76c1.53.43,3.11.66,4.7.7,1.29.04,1.29-1.97,0-2-2.72-.07-5.4-.8-7.78-2.11-1.19-.66-2.29-1.45-3.3-2.36-1.05-.94-2.05-1.93-3.18-2.78-1.36-1.02-2.94-1.83-4.68-1.54-.54.09-.83.75-.7,1.23.16.57.7.79,1.23.7,1.15-.19,2.46.8,3.29,1.47,1.05.85,2,1.82,3.02,2.7,2.14,1.85,4.67,3.22,7.39,3.99Z"/>
          <path class="cls-1" d="M108.55,245.38c.56.13,1.05-.17,1.23-.7.03-.09.06-.17.09-.26,0,0,0,0,0,0,0-.01,0-.01.02-.04.03-.07.07-.13.1-.19-.04.02-.08.03-.11.05.48-1.19,1.36-1.88,2.39-2.29.6-.24,1.24-.36,1.9-.42.31-.03.62-.07.92-.07,1.32.01,2.69.17,3.99.07-.04-.06-.06-.12-.11-.16-1.33-1.25-3.16-1.95-4.99-1.86-1.74.08-3.4.85-4.6,2.11-.69.73-1.21,1.59-1.53,2.55-.17.5.2,1.12.7,1.23Z"/>
          <path class="cls-1" d="M91.9,200.42c-.89.18-1.76.55-2.52,1.04-.92.6-1.69,1.37-2.29,2.3-.28.44-.11,1.13.36,1.37.5.26,1.07.11,1.37-.36.05-.08.1-.15.15-.23.03-.05.16-.22.06-.09.13-.17.27-.32.42-.48.13-.13.26-.25.39-.37.03-.03.07-.06.1-.09,0,0,.05-.04.08-.06.02-.01.04-.03.04-.03.05-.04.1-.07.15-.11.32-.22.66-.42,1.02-.59.05-.03.25-.1.09-.04.08-.03.17-.07.25-.1.2-.07.4-.13.6-.18.17-.04.35-.08.53-.11.03,0,.03,0,.04,0,0,0,.01,0,.05,0,.1,0,.21-.02.31-.02.21-.01.42-.01.63,0,.11,0,.22.01.33.02.06,0,.11.01.17.02.02,0,.02,0,.03,0,0,0,0,0,.03,0,.89.13,1.77.37,2.61.69.04.02.31.12.18.07.12.05.24.11.36.17.21.1.42.21.62.33.2.12.4.24.59.38,0,0,0,0,0,0,.62.19,1.24.34,1.86.43.01-.01.03-.02.04-.03.35-.38.42-1.04,0-1.42-1.51-1.37-3.47-2.14-5.46-2.5-1.08-.19-2.13-.23-3.21,0Z"/>
          <path class="cls-1" d="M95.81,227.93c-.19.49.21,1.12.7,1.23.57.13,1.03-.17,1.23-.7.02-.05.12-.28.06-.16-.06.12.06-.12.08-.16.09-.18.19-.36.29-.54.09-.15.19-.3.29-.45.02-.02.04-.05.05-.07.07-.08.13-.15.19-.23.01-.01.02-.02.03-.03-.06.02-.13.04-.19.06.93-1.86,2.93-2.23,4.74-2.06,1.61.14,3.26.54,4.79.19-.07-.23-.23-.44-.45-.61-1.48-1.14-3.48-1.7-5.34-1.51-1.85.19-3.58,1.02-4.85,2.38-.73.78-1.27,1.67-1.64,2.66Z"/>
          <path class="cls-1" d="M82.91,213.95c1.08,1.04,2.15,2.04,3.53,2.67,1.53.7,3.15,1.07,4.79,1.41.49.1.96-.14,1.16-.61.64.11,1.28.23,1.94.26,1.29.06,1.29-1.94,0-2-6.49-.33-11.55-5.15-16.49-8.81-1.5-1.11-3.04-2.16-4.68-3.05-.1-.06-.2-.07-.3-.09-.17-.18-.39-.29-.67-.28-.48.02-1.08.45-1,1,.61,4.57,3.49,8.68,7.57,10.84,1.13.6,2.35,1.05,3.61,1.31.51.1,1.11-.15,1.23-.7.11-.5-.15-1.12-.7-1.23-.52-.11-1.04-.24-1.54-.42-.23-.08-.45-.16-.67-.25-.01,0,0,0,0,0-.05-.02-.1-.04-.15-.07-.13-.06-.27-.12-.4-.19-.45-.22-.89-.47-1.32-.74-.22-.14-.44-.29-.66-.45-.07-.05-.14-.1-.21-.15-.02-.02-.05-.04-.07-.05-.07-.06-.14-.12-.22-.18-.39-.32-.76-.67-1.11-1.03-.17-.17-.33-.35-.49-.53-.09-.1-.17-.2-.26-.31-.03-.04-.07-.08-.1-.12-.02-.03-.05-.06-.07-.09-.46-.62-.86-1.28-1.22-1.96,1.69,1.18,3.5,2.18,5.24,3.29,1.17.75,2.26,1.56,3.26,2.53Z"/>
          <path class="cls-1" d="M48.65,224.55c.04,3.57-.74,7.09-.4,10.67.21,2.17.72,4.28,1.46,6.31.92,1.23,2.02,2.24,3.29,3.01.04-.2.03-.43-.09-.66-1.49-2.78-2.43-5.87-2.68-9.02-.28-3.46.47-6.87.43-10.32-.01-1.29-2.02-1.29-2,0Z"/>
          <path class="cls-1" d="M60.36,230.29c-.47-.11-1.15.15-1.23.7-.17,1.16.01,2.27.4,3.37.36,1.02.79,2.01,1.14,3.03.69,2.03,1.19,4.13,1.49,6.26.07.52.76.85,1.23.7.57-.18.78-.67.7-1.23-.29-2.05-.77-4.07-1.42-6.04-.32-.97-.72-1.92-1.08-2.87-.18-.47-.34-.96-.45-1.45-.07-.31-.07-.3-.09-.61,0-.11,0-.22,0-.33,0-.04.03-.4.01-.29.07-.52-.13-1.1-.7-1.23Z"/>
          <path class="cls-1" d="M56.82,284.85c-5.62-3.07-6.52-10.21-5.39-15.91.71-3.58,2-7.01,3.2-10.45,1.25-3.57,2.49-7.13,3.74-10.7.43-1.22-1.51-1.75-1.93-.53-2.06,5.91-4.37,11.79-6.11,17.81-1.51,5.19-2.11,10.76.24,15.79.46.99,1.07,1.91,1.76,2.76,1.3.94,2.87,1.4,4.62,1.34-.05-.03-.07-.08-.13-.11Z"/>
          <path class="cls-1" d="M64.56,300.57c.05-.14.09-.22.12-.31.45-.07.82-.54.82-.97,0-.59-.46-.94-1-1-1.7-.2-2.12,2.41-2.34,3.59-.29,1.61-.32,3.23-.09,4.85.41,2.88,1.73,5.58,3.69,7.72,1.06,1.16,2.32,2.14,3.69,2.9.72.4,1.39-.16,1.49-.78-.36-.42-.72-.85-1.05-1.32-3.92-2.46-6.24-6.86-5.96-11.52.04-.7.15-1.38.31-2.06.09-.37.19-.74.31-1.1Z"/>
          <path class="cls-1" d="M84.33,303.35c.15.16.29.34.43.51.03.04.06.08.09.12.09.12.17.24.25.36.27.4.51.82.72,1.26.12.24.23.48.33.72.02.04.08.2.09.24.05.14.1.27.15.41.19.53.36,1.07.52,1.62.1.33.38.58.7.68.11-.11.22-.2.32-.31-.17-2.22-.66-4.24-1.42-6-.14-.19-.25-.39-.4-.57-1.16-1.44-2.66-2.54-4.08-3.7-.82-.67-1.62-1.36-2.33-2.14-.35-.39-1.06-.38-1.42,0-.38.42-.38,1,0,1.42,1.22,1.35,2.71,2.42,4.1,3.58.68.57,1.35,1.16,1.94,1.82Z"/>
          <path class="cls-1" d="M151.47,320.7c1.97.03,3.89,1.61,4.67,3.46.08.18.16.36.21.55.31,1.07.02,2.26-.62,3.15-.61.85-1.53,1.43-2.59,1.38-1.86-.1-3.18-1.95-3.58-3.76-.17-.79-.22-1.59-.25-2.4-.03-.92-.06-1.84-.16-2.76,0-.03,0-.07,0-.1-.01-.1-.01-.2-.03-.3-.3-1.96-1.16-3.73-2.32-5.33-.08.1-.14.22-.17.34-.06.25-.05.55.1.77.02.03.03.06.05.08.01.04.02.09.04.13.02.29,0,.58-.02.86-.03.34-.05.69-.03,1.03.03.43.09.86.19,1.28.04.17.12.32.17.49-.03,2.2.21,4.41.8,6.53.49,1.76,1.4,3.78,3.18,4.56,1.13.49,2.35.46,3.5.02,1.08-.41,2.18-1,3.05-1.76,1.85-1.63,1.25-4.37,0-6.17-1.29-1.85-3.26-3.04-5.49-3.32-.29.37-.54.78-.67,1.25Z"/>
        </g>
        <path class="cls-1" d="M147.2,325.02c-2.81-1.79-3.16-5.91-5.65-8.11-.86-.77-1.94-1.25-2.99-1.72-.25-.11-.7-.03-.58.21"/>
        <path class="cls-1" d="M148.48,327.2c-.11,1.6.57,3.14,1.24,4.6.31.68.64,1.39,1.19,1.9.45.42,1.03.67,1.6.87,1.05.37,2.16.59,3.27.64"/>
        <path class="cls-1" d="M144.2,300.39c-4.15.64-8.46.21-12.4-1.24-2.85-1.05-5.48-2.61-7.97-4.34-2.86-1.98-5.58-4.22-7.74-6.95-1.16-1.46-2.18-3.17-2.14-5.03"/>
        <path class="cls-1" d="M137.43,299.21c-3.89-1.13-7.57-2.97-10.81-5.4-1.96-1.47-3.78-3.16-5.97-4.23-.38-.19-.8-.36-1.21-.25,3.08,3.35,7.14,5.61,11.21,7.66.24.12.64.18.7-.09"/>
        <path class="cls-1" d="M116.78,286.68c.22,1.01.71,1.97,1.4,2.74"/>
        <path class="cls-1" d="M139.79,300.4c-1.13.28-2.31.32-3.47.27-2.32-.1-4.7-.55-6.64-1.82-.85-.56-1.6-1.26-2.35-1.96-.91-.86-1.83-1.72-2.74-2.58"/>
        <path class="cls-1" d="M140.26,300.1c-1.86.67-3.89,1.03-5.84.67s-3.81-1.53-4.69-3.3"/>
        <path class="cls-1" d="M131.73,299.36c-.7-.42-1.53-.57-2.29-.89-1.65-.71-2.82-2.2-3.91-3.63"/>
        <path class="cls-1" d="M68.2,317.61c-4.93-4.09-7.32-11.02-5.95-17.28.05-.23.11-.47.26-.66.5-.64,1.65-.15,1.9.63s-.06,1.61-.3,2.39c-1.03,3.35-.78,7.07.7,10.25"/>
        <path class="cls-1" d="M67.64,313.59c-2.92-3.27-4.16-7.96-3.25-12.24.09-.44.21-.9.07-1.33s-.65-.77-1.04-.54"/>
        <path class="cls-1" d="M67.82,316.43c-2.21,1.37-5.27.31-6.96-1.66-1.7-1.97-2.36-4.6-2.94-7.13-.82-3.55-1.6-7.17-1.45-10.81"/>
        <path class="cls-1" d="M86.49,307.91c-.58-4.48-3.32-8.64-7.22-10.93"/>
        <path class="cls-1" d="M56.67,283.73c-2.02-.29-3.65-1.89-4.55-3.72-.9-1.83-1.17-3.89-1.44-5.91-.16-1.19-.31-2.44.1-3.57"/>
        <path class="cls-1" d="M59.24,282.96c-2.4-2.45-3.7-5.8-4.54-9.11"/>
        <path class="cls-1" d="M58.07,280.79c.22.73.1,1.56-.32,2.2-.14.21-.32.42-.55.51-.8.33-1.74-.71-2.51-.29"/>
        <path class="cls-1" d="M61.13,281.72c-1.97-2.27-3.72-4.73-5.2-7.35-.07-.12-.14-.25-.26-.32-.26-.14-.59.08-.68.36s0,.58.07.87c.55,1.92,1.1,3.84,1.65,5.76.13.46.24,1.01-.1,1.35-.22.22-.56.25-.87.27-.43.03-.87.06-1.3.09"/>
        <path class="cls-1" d="M56.55,282.99c-4.44-7.08-5.6-16.13-3.09-24.1"/>
        <path class="cls-1" d="M64.94,283.31c-1.77-.27-3.42-1.23-4.54-2.63-.87-1.09-1.4-2.4-2.16-3.57-.79-1.22-1.82-2.27-2.86-3.29-.19-.19-.4-.38-.67-.41-.35-.04-.67.25-.79.58s-.09.7-.06,1.05"/>
        <path class="cls-1" d="M80,266.89c-2.76-3.25-4.04-7.48-4.96-11.64-.92-4.16-1.56-8.43-3.31-12.32"/>
        <path class="cls-1" d="M71.21,269.27c1.45,1.5,2.06,3.6,2.62,5.61.19.69.38,1.39.33,2.1s-.4,1.44-1.03,1.77"/>
        <path class="cls-1" d="M73.37,280.35c.91-.71,1.52-1.78,1.68-2.93"/>
        <path class="cls-1" d="M73.68,277.58c.11-1.85-.47-3.72-1.59-5.19"/>
        <path class="cls-1" d="M66.09,311.36c-1.7-1.68-2.44-4.28-1.88-6.61.12-.51.3-1.01.4-1.52.15-.86.05-1.75-.12-2.61-.11-.54-.25-1.09-.59-1.52s-.91-.72-1.44-.57c-.82.23-1.05,1.27-1.06,2.12-.01,1.39.19,2.79.6,4.12"/>
        <path class="cls-1" d="M64.41,303.27c-.07,3.05.55,6.11,1.79,8.89"/>
        <path class="cls-1" d="M64.05,306.68c.05-1.55.23-3.1.53-4.61.22-1.09.48-2.33-.18-3.23-.5-.68-1.48-.94-2.25-.61s-1.25,1.23-1.09,2.06"/>
        <path class="cls-1" d="M100.19,243.34c-3.27.11-6.73.17-9.55-1.49-3-1.76-4.64-5.1-7.02-7.64"/>
        <path class="cls-1" d="M99.95,242.64c-1.32.11-2.66-.08-3.89-.54-1.07-.4-2.05-1.01-3-1.64-3.14-2.09-6.05-4.5-8.96-6.91"/>
        <path class="cls-1" d="M95.67,242.26c-1.68-.17-3.27-.87-4.7-1.78s-2.69-2.04-3.96-3.16"/>
        <path class="cls-1" d="M48.86,236.17c-.32-.21-.5-.56-.66-.9-1.37-2.77-2.77-5.74-2.47-8.81.11-1.13.45-2.22.79-3.31.03-.09.06-.18.14-.23s.21.01.2.1"/>
        <path class="cls-1" d="M48.97,232.62c.07.09-.13.14-.23.07-.55-.37-.77-1.05-.95-1.69-.43-1.48-.87-2.97-.94-4.51s.23-3.14,1.16-4.37c.05-.06.1-.12.17-.15.25-.09.38.3.35.57-.24,2.51-.71,5.09.04,7.49.02.05.04.11.09.11s.05-.1,0-.08"/>
        <path class="cls-1" d="M49.68,224.18c.19-.43-.05-.93-.28-1.34-.14-.24-.28-.48-.48-.65s-.5-.28-.76-.19c-.32.11-.48.46-.59.78-.66,1.8-1.02,3.7-1.08,5.62"/>
        <path class="cls-1" d="M47.88,222.85c.14-.11.09-.35-.06-.44s-.35-.04-.48.08-.2.28-.26.44c-.17.49-.23,1.01-.28,1.53"/>
        <path class="cls-1" d="M84.76,216.46c-3.67-2.6-7.22-5.38-10.63-8.32,3.76,2.17,7.27,4.78,10.43,7.76-1.54-1.77-3.45-3.18-5.45-4.41,1.57,1.22,3.14,2.45,4.72,3.67-1.97-1.84-4.19-3.41-6.57-4.67.37.49.84.89,1.38,1.18"/>
        <path class="cls-1" d="M102.01,204.26c-2.33-2.31-5.71-3.5-8.97-3.18-.66.07-1.31.19-1.93.42-1.18.44-2.21,1.28-2.89,2.34"/>
        <path class="cls-1" d="M112.76,262.3c-1.49-1.06-3.75-.85-5.01.48"/>
        <path class="cls-1" d="M109.72,262.67c-1.13-.24-2.3-.48-3.43-.27-.35.07-.71.18-1.06.12-.99-.17-1.27-1.43-1.34-2.44,1.44.78,3.03,1.27,4.65,1.42"/>
        <path class="cls-1" d="M106.96,262.56c-2.86-1.55-5.45-3.6-7.64-6.01"/>
        <path class="cls-1" d="M105.55,262.47c-.7-.16-1.28-.64-1.82-1.13-1.51-1.36-2.89-2.86-4.14-4.47-.41-.53-.89-1.12-1.56-1.2"/>
      </g>
      <g>
        <path class="cls-4" d="M47.28,218.04c-.75,1.12-1.46,2.27-2.14,3.45-.33.57-.65,1.15-.88,1.77-.45,1.17-.57,2.44-.69,3.69"/>
        <path class="cls-4" d="M59.26,241.67c-3.24-3.01-5.37-7.2-5.89-11.59-.18-1.52-.16-3.11.47-4.5"/>
        <path class="cls-4" d="M58.68,198.05c-1.16,1.6-2.04,3.4-2.6,5.29"/>
        <path class="cls-4" d="M60.02,201.49c-1.12,1.65-2.03,3.45-2.71,5.34"/>
        <path class="cls-4" d="M61.29,205.01c-1.14,1.57-2.04,3.32-2.63,5.16"/>
        <path class="cls-4" d="M61.88,209.69c-.87,1.25-1.56,2.63-2.04,4.08"/>
        <path class="cls-4" d="M63,213.07c-1.04,1.04-1.8,2.34-2.2,3.76"/>
        <path class="cls-4" d="M75.19,215.35c-3.11-3.68-5.81-7.71-8.02-11.99"/>
        <path class="cls-4" d="M92.31,211.4c-1.09.03-2.19-.14-3.23-.51-.85-.3-1.65-.72-2.43-1.17-5.13-2.96-9.58-7.1-12.88-12.02"/>
        <path class="cls-4" d="M88.12,198.89c-7.84-2.51-14.88-7.47-19.89-14"/>
        <path class="cls-4" d="M62.96,195.05c.48-1.89-.55-3.8-1.38-5.57-1.49-3.16-2.45-6.58-2.81-10.06"/>
        <path class="cls-4" d="M106.06,233.92c.29,2.49-1.64,5.02-4.12,5.41-1.25.19-2.52-.1-3.7-.54-1.15-.43-2.29-1.03-3.05-1.99"/>
        <path class="cls-4" d="M108.13,221.87c.14-1.01-1.01-1.78-2.03-1.81s-2.01.39-3.03.45c-.72.04-1.45-.09-2.16-.23-.94-.18-1.89-.36-2.83-.54"/>
        <path class="cls-4" d="M91.32,234.45c-1.69-1.51-3.38-3.03-5.07-4.54-.43-.39-.88-.79-1.12-1.32"/>
        <path class="cls-4" d="M98.79,246.64c-4.26,1.47-9.06-.31-12.51-3.19-3.46-2.88-5.92-6.75-8.65-10.32"/>
        <path class="cls-4" d="M103.68,237.42c.94-.88,1.46-2.18,1.38-3.46"/>
        <path class="cls-4" d="M107.07,221.88c-.18-.41-.66-.67-1.1-.58"/>
        <path class="cls-4" d="M85.06,230.22c-1.39-1.39-2.83-2.73-4.32-4"/>
        <path class="cls-4" d="M76.36,231.49c-1.05-1.42-2.02-2.9-2.91-4.44"/>
        <path class="cls-4" d="M74.78,227.23c-.87-1.25-1.64-2.57-2.31-3.94"/>
        <path class="cls-4" d="M58.02,238.14c-1.71-2.22-2.77-4.94-3.02-7.73"/>
        <path class="cls-4" d="M43.67,234.17c-.38-1.45-.56-2.96-.54-4.46"/>
        <path class="cls-4" d="M58.03,242.01c-1.7-1.3-3.16-2.92-4.27-4.76"/>
        <path class="cls-4" d="M54.97,281.35c-1.95-2.02-3.03-4.77-3.33-7.56-.3-2.79.12-5.61.87-8.32"/>
        <path class="cls-4" d="M55.14,279.66c-2.04-2.84-2.86-6.53-2.22-9.97"/>
        <path class="cls-4" d="M57.48,252.43c-2.2,3.05-3,6.87-3.74,10.55-.03.15.06.39.18.3"/>
        <path class="cls-4" d="M70.84,279.05l1.42-.74c.31-.16.63-.34.8-.64.12-.22.14-.49.14-.74,0-.53-.07-1.06-.21-1.57"/>
        <path class="cls-4" d="M72.3,273.97c-.41-.91-1.02-1.73-1.76-2.39"/>
        <path class="cls-4" d="M62.76,279.35c-1.12-1.69-1.36-3.8-1.45-5.82-.03-.61-.05-1.23-.06-1.84"/>
        <path class="cls-4" d="M66.06,280.11c-1.65-.79-2.9-2.37-3.29-4.16"/>
        <path class="cls-4" d="M80.23,272l.39-.13c.32-.93.12-1.97-.29-2.86s-1.02-1.68-1.55-2.5c-1.73-2.64-2.76-5.73-2.98-8.88"/>
        <path class="cls-4" d="M75.02,255.66c-.51-2.28-1-4.57-1.45-6.86"/>
        <path class="cls-4" d="M67.45,264.06l.28.57c-.69-1.46-1-3.06-1.31-4.64-.54-2.78-1.09-5.65-.45-8.41-.02-.13-.23-.16-.29-.05s.11.26.22.19"/>
        <path class="cls-4" d="M63.14,259.91c-.95-3.3-.89-6.8-.69-10.22"/>
        <path class="cls-4" d="M90.39,299.55c-1.01-2.22-2.16-4.47-4.05-6s-4.74-2.14-6.79-.82c-.53.34-1,.81-1.61.99-.36.11-.74.11-1.1,0"/>
        <path class="cls-4" d="M74.5,313c-1.46-.43-2.65-1.54-3.44-2.84-.79-1.3-1.23-2.78-1.58-4.26-.32-1.38-.57-2.78-.74-4.19"/>
        <path class="cls-4" d="M66.62,315.49c-1.31-1.43-2.64-2.88-3.51-4.62-.51-1.03-.85-2.15-1.13-3.27-.72-2.92-1.02-5.96-.69-8.96,0-.06.03-.14.09-.15s.08.12.02.1"/>
        <path class="cls-4" d="M65.27,316.4c-.49,0-.95-.22-1.39-.45-.63-.33-1.27-.66-1.81-1.11-.94-.79-1.54-1.9-2.03-3.02"/>
        <path class="cls-4" d="M68.7,286.01c-.27-.08-.55.05-.81.17-1.37.62-2.97.71-4.4.26-.2-.06-.42-.14-.62-.06-.11.05-.2.14-.29.22-.74.71-1.75,1.14-2.78,1.19.07-.06.13-.12.2-.17"/>
        <path class="cls-4" d="M84.38,284.39c-.82-.93-1.22-2.15-1.59-3.33-.27-.86-.54-1.72-.82-2.58"/>
        <path class="cls-4" d="M84.74,306.31c-.37-2.05-1.36-3.99-2.8-5.49-.21-.22-.47-.45-.77-.47"/>
        <path class="cls-4" d="M79.44,307.29c-2.28-1.24-4.39-2.86-5.9-4.97s-2.39-4.73-2.11-7.31c.1-.91.34-1.81.35-2.73s-.23-1.9-.93-2.5"/>
        <path class="cls-4" d="M69.16,296.14c.73-1.36.32-3.03-.12-4.51-.36-1.22-.72-2.45-1.07-3.67"/>
        <path class="cls-4" d="M77.71,304.31c-2.51-2.35-5.05-5.23-5.02-8.67"/>
        <path class="cls-4" d="M137.46,309.73c-7.42-.13-14.53-3.4-20.37-7.99-5.84-4.58-10.56-10.42-15.02-16.35-3.68-4.89-7.22-9.88-10.62-14.97"/>
        <path class="cls-4" d="M155.83,278.93c-.07,3.4-1.1,6.77-2.94,9.62-2.46,3.81-6.62,6.74-11.16,6.82-4.13.07-7.92-2.1-11.46-4.21-6.22-3.7-12.43-7.4-18.65-11.1"/>
        <path class="cls-4" d="M151.93,267.45c1.16-.41,1.5-2.07.84-3.11s-1.98-1.49-3.22-1.48-2.43.39-3.63.67c-2.18.51-4.45.68-6.68.5"/>
        <path class="cls-4" d="M136.86,264.32c-3.56-.38-7.06-1.32-10.33-2.79"/>
        <path class="cls-4" d="M144.96,290.63c-1.24-.23-2.51.16-3.76.32-4.69.61-9.18-1.96-12.98-4.78-3.8-2.82-7.51-6.08-12.11-7.19"/>
        <path class="cls-4" d="M144.51,284.21c-3.89.91-8.03,1.82-11.8.48-4.63-1.65-7.73-6.39-12.47-7.67"/>
        <path class="cls-4" d="M123.27,302.1c-4.88-1.83-9.07-5.21-12.54-9.1-3.47-3.89-6.29-8.32-9.1-12.72"/>
        <path class="cls-4" d="M112.06,265.91l-3.99-.03c-1.16,0-2.34-.02-3.47-.3-1.76-.43-3.3-1.46-4.71-2.59-2.84-2.28-5.31-5.03-7.27-8.1-.05-.08-.1-.18-.05-.26s.21.01.14.07"/>
        <path class="cls-4" d="M110.4,268.1c-3.06.87-6.4.52-9.35-.68-2.95-1.2-5.52-3.21-7.67-5.55-1.4-1.53-2.63-3.2-3.85-4.87-1.25-1.7-2.5-3.4-3.75-5.1"/>
        <path class="cls-4" d="M119.88,253.91c.39-1.79.74-3.58,1.03-5.39.06-.37.11-.78-.08-1.1-.12-.2-.32-.34-.53-.46-1.53-.92-3.42-1.22-5.15-.82"/>
        <path class="cls-4" d="M115.23,258.95c-2.66.7-5.53.31-8.09-.71s-4.83-2.64-6.93-4.42"/>
        <path class="cls-4" d="M113.83,257.8c-4.4-.19-8.74-1.75-12.25-4.43"/>
        <path class="cls-4" d="M118.75,238.77c.7.23,1.53-.08,1.92-.71s.28-1.51-.24-2.03-1.4-.63-2.03-.25"/>
        <path class="cls-4" d="M117.05,235.86c-1.29-.02-2.58-.07-3.86-.16"/>
        <path class="cls-4" d="M113.93,246.43c-.1-.13-.3-.12-.46-.08-1.7.34-3.43.7-4.92,1.58-.3.18-.59.38-.86.6"/>
        <path class="cls-4" d="M116.77,247.6c-.29-.07-.58-.11-.88-.12-.4-.01-.8.03-1.19.07-.2.02-.4.04-.6.06-.15.02-.3.03-.45.06-.34.07-.66.21-.94.4,0-.07.06-.14.14-.15"/>
        <path class="cls-4" d="M128.98,343.65c-6.11-2.34-11.42-6.75-14.83-12.33-.42-.09-.34-.86.08-.87s.53.76.12.86"/>
        <path class="cls-4" d="M111.64,319.46c-3.69-3.83-7.43-7.73-10.01-12.38-.83-1.5-1.54-3.08-2.56-4.47.11.13.21.26.32.4"/>
        <path class="cls-4" d="M127.61,318.63c-11.69-3.73-20.72-13.06-28.03-22.93-2.9-3.91-5.61-7.97-8.13-12.14"/>
        <path class="cls-4" d="M145.73,439.76c7.59-8.23,11.65-19.3,12.74-30.44s-.62-22.4-3.45-33.23c-4.33-16.55-11.28-32.41-20.52-46.81-.28-.44-.57-.92-.51-1.43s.7-.95,1.11-.63-.3,1.11-.56.66"/>
        <path class="cls-4" d="M161.95,413.39c2.36-9.81,2.12-20.14.21-30.06-1.91-9.91-5.44-19.45-9.59-28.65-.1-.23-.2-.52-.04-.71s.57.09.37.24"/>
        <path class="cls-4" d="M152.18,357.98c-2.2-4.28-4.4-8.56-6.6-12.84"/>
        <path class="cls-4" d="M157.05,330.29c2.19-1.69,2.7-5.19,1.08-7.43"/>
        <path class="cls-4" d="M148.97,328.28c-1.1-1.31-1.75-2.99-1.81-4.7-.04-1.2.19-2.4.12-3.59s-.53-2.48-1.57-3.07"/>
        <path class="cls-4" d="M155.12,331.17c-.29.08-.61.06-.89-.05"/>
        <path class="cls-4" d="M115.3,355.07c-.61-1.38-1.23-2.77-1.52-4.24-.32-1.61-.26-3.29.19-4.86"/>
        <path class="cls-4" d="M111.18,340.91c-.96,3.86-.88,7.98.23,11.8"/>
        <path class="cls-4" d="M108.65,365.67c-.96-.19-1.8-.81-2.39-1.59s-.96-1.71-1.22-2.65c-.13-.47-.23-.95-.14-1.43"/>
        <path class="cls-4" d="M112.07,369.27c-.44.07-.88.05-1.33.04-.63-.02-1.27-.05-1.89-.16-1.43-.25-2.77-.98-3.77-2.03"/>
        <path class="cls-4" d="M114.06,364.86c.46-.26.78-.73.96-1.23s.23-1.03.28-1.56"/>
        <path class="cls-4" d="M132.39,426.53c4.29-5.9,5.48-13.93,3.07-20.82"/>
        <path class="cls-4" d="M134.72,396.46c3.91-3.27,5.32-9.2,3.3-13.88"/>
        <path class="cls-4" d="M135.94,374.59c-5.72-3.52-8.95-10.67-7.82-17.28"/>
        <path class="cls-4" d="M139.27,355.59c.18-7.66-4.75-14.44-9.94-20.07s-11.05-11.09-13.55-18.33"/>
        <path class="cls-4" d="M111.53,460.64c-3.04.76-6.19,1.06-9.32.9-.8-.04-1.62-.12-2.36-.44s-1.39-.94-1.56-1.73c-.19-.87.21-1.75.65-2.52.38-.66.78-1.3,1.15-1.97.74-1.33,1.32-2.75,1.74-4.21"/>
        <path class="cls-4" d="M115.73,426.23c.16,1.43-.16,2.87-.5,4.27-.42,1.73-.89,3.47-1.68,5.07-.79,1.6-1.92,3.07-3.44,4.01"/>
        <path class="cls-4" d="M126.88,430.52c-1,1.13-2.67,1.59-4.11,1.14"/>
        <path class="cls-4" d="M121.41,431.51c-.82-.21-1.55-.77-1.95-1.52"/>
        <path class="cls-4" d="M141.63,432.69c-3.92,6.86-11.25,10.95-18.28,14.57-3.11,1.6-6.37,3.2-9.86,3.26"/>
        <path class="cls-4" d="M114.68,455.7c3.64-.07,7.26-1.12,10.38-3,2.49-1.5,4.63-3.49,6.76-5.47"/>
        <path class="cls-4" d="M88.95,451.99c-7.57-3.84-14.49-9.22-19.27-16.23-.08-.12-.03-.39.09-.29"/>
        <path class="cls-4" d="M67.79,433.45c-2.76-3.34-4.8-7.27-5.95-11.44"/>
        <path class="cls-4" d="M75.81,433.67c-2.49-3.43-4.43-7.27-5.71-11.32"/>
        <path class="cls-4" d="M81.24,424.15c-.39,1.94-.43,3.95-.1,5.91.12.7.28,1.4.16,2.1s-.63,1.38-1.33,1.46"/>
        <path class="cls-4" d="M70.86,387.8c-.05,3.34-2.88,5.86-4.9,8.52-2.69,3.55-4.16,8.01-4.11,12.46,0,.36.27.86.57.67"/>
        <path class="cls-4" d="M91.11,375.58c-1.29-1.9-2.78-3.94-5.01-4.46-1.02-.23-2.08-.12-3.11.02-2.36.32-4.72.76-6.93,1.64-4.57,1.83-8.31,5.62-10.07,10.21-.13.34-.11.89.25.88"/>
        <path class="cls-4" d="M79.3,401.14c.02.78-.56,1.44-1.1,2-1.14,1.19-2.28,2.39-3.42,3.58.05-.13.1-.26.15-.39"/>
        <path class="cls-4" d="M94.87,442.42c-3.73-3.2-7.59-6.59-9.38-11.16"/>
        <path class="cls-4" d="M103.3,322.73c-.7,1.15-.96,2.55-.72,3.88"/>
      </g>
      <g>
        <path class="cls-6" d="M58.26,422.6c4.1,17.28,17.55,31.98,34.33,37.75.07-.09.13-.19.2-.28-.24-.02-.49-.05-.73-.07.2-5.91,4.6-10.09,9.05-14.37-8.41-4.69-14.35-14.23-15.91-23.71-.25-1.51-.56-3.29-1.94-3.95-1.69-.81-3.6.74-4.5,2.39-2.23,4.07-1.78,9.02-1.27,13.63-6.49-11.59-5.94-16.96-4.02-19.7,1.95-2.78,5.79-3.52,8.74-8.84.55-1,2.52-4.54,1.39-5.74-1.39-1.48-6.84,1.22-10.1,3.56-4.08,2.93-6.43,6.53-7.71,8.92-1-2.62-.49-5.63.74-8.15,1.35-2.76,2.68-3.23,4.99-6.74,2.26-3.44,1.18-4.25,3.79-9.08,1.91-3.53,3.31-4.81,4.28-5.54.72-.55,2.43-1.83,4.59-2.18,5.49-.87,9.35,5.1,10.69,4.16,1.54-1.08-.52-11-7.37-14.18-6.13-2.84-13.09,1.1-14.56,1.93-13.88,7.85-19.11,31.54-14.69,50.18Z"/>
        <path class="cls-5" d="M151.47,320.7c2.16.03,4.28,1.94,4.88,4.02.6,2.08-1.05,4.65-3.21,4.53-1.86-.1-3.18-1.95-3.58-3.76-.4-1.82-.17-3.72-.45-5.56-.51-3.36-2.64-6.18-5.18-8.5-4.11,2.73-9.45,3.48-14.6,2.16,0,.1,0,.2,0,.31.95.99,1.87,1.99,2.81,2.99,1.42-.84,3.29-1.02,4.88-.47,2.38.83,4.14,2.9,5.31,5.13,1.17,2.23,1.86,4.68,2.86,7,1,2.32,2.38,4.58,4.52,5.92,3.23,2.03,7.81,1.36,10.52-1.33s3.47-7.06,2.07-10.61c-.88-2.24-2.67-4.23-5.01-4.8-2.34-.57-5.13.68-5.82,2.98Z"/>
        <path class="cls-2" d="M109.87,353.88c.95,1.6,2.34,2.92,3.18,4.58s.99,3.92-.38,5.18c-1.59,1.46-4.5.52-5.35-1.47s-.43-4.8,1.23-6.2c-1.99-1.35-4.94-.53-6.38,1.39-1.45,1.92-1.56,4.6-.82,6.89,1.17,3.63,4.54,6.53,8.33,6.88s7.76-2.04,8.98-5.65c.8-2.39.43-5.02-.26-7.44s-1.72-4.76-2.23-7.22c-.46-2.19-.42-4.56.51-6.57-1.1-.89-2.25-1.87-3.46-2.98-1.1-1.01-2.11-2.16-3-3.4-.59,1.2-1,2.53-1.28,3.8-.91,4.09-1.18,8.62.96,12.22Z"/>
        <path class="cls-3" d="M100.97,326.54c.21.74.63,1.42.79,2.18s-.02,1.68-.7,2.05c-.8.42-1.87-.27-2-1.16s.34-1.98,1.15-2.37c-.66-.75-1.93-.74-2.72-.12-.79.62-1.12,1.69-1.06,2.69.09,1.59,1.14,3.11,2.63,3.65,1.49.54,3.34,0,4.21-1.33.58-.88.71-1.98.68-3.02s-.19-2.1-.13-3.14.36-2.14,1.12-2.86c.12-.12.28-.2.42-.29-.71-.95-1.46-1.97-2.24-3.03-.51.48-.92,1.11-1.24,1.73-.8,1.55-1.39,3.35-.9,5.02Z"/>
        <path class="cls-6" d="M82.51,266.46c.07.11.12.24.18.35,1,1.59,2.06,3.8.55,6.24.03.14.04.3.08.45,1.94,7.94,5.28,14.75,9.92,19.74,1.44,1.55,3.07,3.79,1.8,6.83-.71,1.69-2.05,2.77-3.36,3.18,6.2,9.51,11.77,17.1,15.83,22.42-1.77,5.57,1.39,11.63,5.68,15.6,5.01,4.62,9.06,7.04,12.66,9.2-3.36,7.6-4.09,16.28.18,23.2,2.05,3.33,5.09,6,6.92,9.45,1.84,3.45,2.04,8.35-1.07,10.72-2.62-1.66-4.82-4-6.31-6.72-2.52,2.95.05,7.31,1.97,10.68,4.83,8.49,5.05,19.44.56,28.12-.76,1.47-1.7,2.93-3.12,3.75s-3.46.82-4.55-.42c-.59-.67-.82-1.57-1.04-2.44-1.11-4.43-2.21-8.87-3.32-13.3-3.2,1.91-4.51,5.88-4.91,9.59-.4,3.7-.16,7.53-1.34,11.06-3.39,10.13-17.4,15.17-17.77,25.84.24.02.49.05.73.07-1.79,2.38-3.13,4.7-4.12,6.68,29.8,10.03,64.17-10.58,75.51-39.9,11.34-29.32,2.98-63.54-14.99-89.34-6-8.61-12.96-16.44-20.24-24.03-.61-.17-1.22-.36-1.83-.59-10.02-3.78-18.64-13.42-26.45-23.09-3.23-3.99-11.87-16.28-18.17-28.07-.02,1.59-.03,3.17.02,4.72Z"/>
        <path class="cls-7" d="M60.99,202.48c2.73,6.45,5.99,13.07,11.73,17.1,5.74,4.02,14.62,4.38,19.09-1.01-1.39-.25-2.75-.63-4.08-1.09.68.08,1.37.11,2.05.09,5.8-.18,11.34-3.96,13.63-9.29-3.47-3.28-8.35-5.01-13.11-4.64,1.53-1.29,3.82-1.11,5.74-.54s3.82,1.46,5.82,1.36c2-.1,4.12-1.73,3.82-3.71-.33-2.19-3.04-2.95-5.21-3.37-7-1.35-13.68-4.18-19.59-8.14-6.06-4.06-9.79-11.63-15.42-15.38-17.53-11.66-7.05,22.48-4.46,28.63Z"/>
        <path class="cls-7" d="M95.53,216.16c-1.81.83-3.76,1.34-5.75,1.4-.69.02-1.37-.02-2.05-.09,1.33.46,2.69.84,4.08,1.09-4.47,5.4-13.35,5.03-19.09,1.01-5.74-4.02-9-10.64-11.73-17.1-.03-.07-.06-.16-.09-.23.13,8.41,9.63,26.43,12.34,30.73,4.19,6.66,8.89,13.37,14.94,16.5,6.06,3.13,13.74,1.29,15.99-5.98-1.26.07-2.53-.02-3.8-.21.6-.09,1.2-.22,1.78-.41,4.9-1.68,8.53-7.38,8.94-14.03-3.91-2.86-8.57-3.59-12.52-1.96.93-1.86,2.93-2.23,4.74-2.06,1.8.16,3.68.7,5.35.07,1.68-.63,3.02-3.02,2.19-5.2-.92-2.41-3.44-2.59-5.42-2.51-3.28.12-6.6-.23-9.9-1.02Z"/>
        <path class="cls-7" d="M115.42,262.13c-.64.28-1.31.48-1.99.63,1.46.1,2.92.08,4.35-.11-1.91,8.5-10.5,11.29-17.68,8.27-7.19-3.02-13.16-10.23-18.54-17.44-1.21-1.61-3.5-5.05-6.01-9.23,2.13,13.29,20.13,39.36,25.12,45.54,7.81,9.66,16.43,19.31,26.45,23.09,10.02,3.78,21.6-.54,23.68-12.37-1.94.34-3.93.44-5.94.38.92-.25,1.82-.56,2.68-.98,7.28-3.54,11.81-13.17,11.15-23.68-6.63-3.75-14.02-4.02-19.84-.73,1.09-3.09,4.13-4.04,6.96-4.12,2.83-.08,5.85.41,8.33-.89,2.48-1.29,4.1-5.3,2.38-8.56-1.9-3.61-5.86-3.42-8.92-2.93-8.56,1.36-17.57.63-26.49-1.94-1.5,2.28-3.42,4.08-5.7,5.07Z"/>
        <g>
          <path class="cls-7" d="M83.25,273.05s0,0,0,.01c-1.37,2.2-3.96,2.75-5.26,1.79-1.31-.96-1.77-2.89-2.5-4.5-.73-1.61-1.98-3.02-3.94-2.5,3.21,2.15,4.84,6.54,4.38,11.77-5.6,4.29-11.96,5.23-15.65,2.33-.44-.34-.83-.75-1.18-1.19.45,1.19.99,2.3,1.64,3.3-1.16.53-2.26.81-3.31.91-2.01,8.77-3.47,17.68-1.9,24.76,1.75,7.94,8.59,12.5,15.94,7.44-.93-.97-1.75-2.09-2.49-3.31.49.41,1.01.78,1.57,1.06,4.76,2.43,11.83,0,17.4-5.98-.47-5.92-3.15-10.44-7.21-12.14,2.13-1,3.82.29,4.95,1.93,1.13,1.63,2.02,3.68,3.69,4.46,1.67.78,4.51-.39,5.66-3.14,1.27-3.04-.35-5.28-1.8-6.83-4.64-4.99-7.98-11.8-9.92-19.74-.03-.14-.05-.3-.08-.44Z"/>
          <path class="cls-7" d="M77.46,250.91c.74,5.9,2.4,11.23,5.07,15.58-.05-1.56-.06-3.15-.03-4.76-2-3.75-3.76-7.45-5.04-10.81Z"/>
        </g>
        <g>
          <path class="cls-7" d="M73.23,232.98c-.21-.34-.48-.78-.77-1.28.29.5.55.94.77,1.28Z"/>
          <path class="cls-7" d="M73.23,232.98c.67,1.07,1.37,2.14,2.08,3.2-.71-1.06-1.4-2.13-2.08-3.2Z"/>
          <path class="cls-7" d="M77.72,239.63c-.75-1.01-1.47-2.05-2.18-3.1.71,1.06,1.43,2.09,2.18,3.1Z"/>
          <path class="cls-7" d="M70.29,227.74c.34.64.66,1.23.96,1.79-.3-.56-.63-1.16-.96-1.79Z"/>
          <path class="cls-7" d="M60.73,284.06c-.65-1-1.19-2.11-1.64-3.3.36.44.75.84,1.18,1.19,3.7,2.9,10.06,1.96,15.65-2.33.46-5.23-1.18-9.62-4.38-11.77,1.95-.52,3.21.89,3.94,2.5.73,1.61,1.19,3.54,2.5,4.5,1.31.96,3.89.41,5.26-1.79,1.52-2.44.46-4.66-.55-6.25-3.23-5.12-5.09-11.61-5.59-18.85-.03-.39-.02-.79-.03-1.19-2.18-3.5-4.69-7.81-6.89-12.15.12.45.23.91.36,1.36.63,2.12,1.22,4.92-.46,6.66-1.52,1.58-3.83.87-4.82-.75-.99-1.62-1.1-3.82-1.49-5.83-.14-.7-.34-1.41-.61-2.05-.24.42-.48.84-.72,1.26,1.01,3.19,1.16,6.87.33,10.49-2.02.6-4.06.68-5.97.31-1.04,2.13-1.84,3.88-2.3,4.97-3.41,8.11-6.61,16.69-6.26,23.89.35,7.21,5.5,12.32,12.48,9.13Z"/>
          <path class="cls-7" d="M71.47,229.94c.28.52.55.98.79,1.41-.25-.43-.51-.89-.79-1.41Z"/>
          <path class="cls-7" d="M69,225.24c.37.74.73,1.44,1.08,2.11-.35-.67-.71-1.38-1.08-2.11Z"/>
        </g>
        <g>
          <path class="cls-7" d="M68.53,224.31s0,0,0,0c-.86-1.74-1.75-3.62-2.6-5.54.85,1.92,1.74,3.8,2.6,5.54Z"/>
          <path class="cls-7" d="M48.98,242.83c-.42-1.34-.71-2.75-.92-4.18.24.63.52,1.23.85,1.8,2.76,4.79,8.4,6.95,13.88,5.32,1.17-5.13.42-10.42-2.03-14.19,1.77.43,2.64,2.49,3.03,4.49.39,2.01.5,4.21,1.49,5.83.99,1.62,3.3,2.33,4.82.75,1.68-1.75,1.09-4.54.46-6.66-.13-.44-.23-.9-.35-1.35-3.69-7.28-6.49-14.6-5.25-18.13.23.54.47,1.08.7,1.61-2.54-5.79-4.69-11.9-4.75-15.87.03.07.07.16.09.23-.67-1.58-1.85-5.01-2.95-9.04-4.3,5.02-8.12,10.34-9.5,12.55-4.16,6.62-8.21,13.82-8.98,21.36-.78,7.54,2.92,15.3,9.43,15.47Z"/>
        </g>
        <path class="cls-7" d="M102.15,242.87c-.58.2-1.17.33-1.78.41,1.27.19,2.54.28,3.8.21-2.25,7.27-9.94,9.11-15.99,5.98-6.05-3.13-10.75-9.84-14.94-16.5-1.55-2.46-5.32-9.41-8.29-16.48-2.63,7.45,12.7,31.75,16.61,36.99,5.38,7.21,11.35,14.43,18.54,17.44,7.19,3.02,15.78.22,17.68-8.27-1.43.19-2.88.21-4.35.11.68-.15,1.35-.36,1.99-.63,5.43-2.36,9.05-9.19,8.91-16.81-4.71-2.9-10.1-3.31-14.45-1.09.89-2.2,3.14-2.81,5.21-2.78,2.07.02,4.26.46,6.11-.41,1.85-.87,3.16-3.71,2.02-6.12-1.27-2.66-4.16-2.64-6.41-2.37-2.11.25-4.24.31-6.4.22-1.31,4.88-4.38,8.77-8.27,10.1Z"/>
      </g>
    </g>
  </g>
</svg>